<svg xmlns="http://www.w3.org/2000/svg" viewBox="0 0 2500 1456.29"><defs><style>.cls-1{fill:#d9e9fe;}.cls-2{fill:#fff;}.cls-3{fill:#afcdfb;}.cls-4{fill:#8fb4fa;}.cls-5{fill:#2e3552;}.cls-6{fill:#fb7369;}.cls-7{fill:#f2564b;}.cls-8{fill:#fc9490;}.cls-9{fill:#293eb7;}.cls-10{fill:#ff8585;}.cls-11{fill:#3a4ace;}.cls-12{fill:#22407a;}.cls-13{fill:#d9e9f9;}.cls-14{fill:#ba4c43;}.cls-15{fill:#d5e5fb;}.cls-16{fill:#c6dcf7;}</style></defs><title>Homepage material</title><g id="Layer_2" data-name="Layer 2"><g id="Слой_1" data-name="Слой 1"><path class="cls-1" d="M139.48,1453.15S-82.39,1172,142.65,822.51c208.68-324,531.7-168.58,735.35-466,516-753.67,1617.41-174.29,1452.16,466.25-80,310,243.38,321.25,78.62,631.1Z"/><path class="cls-2" d="M301,946.05a49.16,49.16,0,1,1,49.15,49.15A49.16,49.16,0,0,1,301,946.05Z"/><path class="cls-3" d="M356,957.74a7.82,7.82,0,0,0-.39-2.67,5.58,5.58,0,0,0-1.36-2.1,10.66,10.66,0,0,0-2.47-1.76,28.91,28.91,0,0,0-3.71-1.6,72.72,72.72,0,0,1-6.84-2.88,23.05,23.05,0,0,1-5.25-3.44,13.46,13.46,0,0,1-3.35-4.5,15.33,15.33,0,0,1,0-11.64,12.88,12.88,0,0,1,3.16-4.33,15.83,15.83,0,0,1,4.85-3,21.46,21.46,0,0,1,6.31-1.4l.11-7.68,6.19.09-.12,7.79a19.21,19.21,0,0,1,6,1.85,14.86,14.86,0,0,1,4.55,3.51,15.06,15.06,0,0,1,2.85,5,19.61,19.61,0,0,1,.93,6.5l-11.18-.16c0-2.87-.56-5-1.82-6.48a6.53,6.53,0,0,0-5.09-2.21,8.47,8.47,0,0,0-3,.44,5.77,5.77,0,0,0-2.09,1.3,5.34,5.34,0,0,0-1.23,2,7.62,7.62,0,0,0-.42,2.47,7.06,7.06,0,0,0,.35,2.41,5.17,5.17,0,0,0,1.31,2,10.77,10.77,0,0,0,2.48,1.76,36.32,36.32,0,0,0,3.86,1.72q3.74,1.46,6.79,3a23.31,23.31,0,0,1,5.23,3.47,13.11,13.11,0,0,1,4.48,10.57,14,14,0,0,1-1.18,5.66,12.75,12.75,0,0,1-3.18,4.3,15.52,15.52,0,0,1-4.89,2.87,22.91,22.91,0,0,1-6.35,1.35l-.1,7.14-6.15-.09.11-7.11a25.55,25.55,0,0,1-6.19-1.49,16.4,16.4,0,0,1-5.27-3.18,14.77,14.77,0,0,1-3.64-5.17,18.12,18.12,0,0,1-1.28-7.42l11.17.16a11.18,11.18,0,0,0,.66,4.27,7.1,7.1,0,0,0,1.87,2.75,6.85,6.85,0,0,0,2.71,1.48,12,12,0,0,0,3.1.46,9.82,9.82,0,0,0,3.2-.42,6.71,6.71,0,0,0,2.32-1.26,5.33,5.33,0,0,0,1.42-1.94A6.57,6.57,0,0,0,356,957.74Z"/><circle class="cls-2" cx="493.28" cy="788.19" r="73.72" transform="translate(-11.99 7.63) rotate(-0.88)"/><path class="cls-3" d="M502,805.73a11.5,11.5,0,0,0-.58-4,8.45,8.45,0,0,0-2-3.15,15.7,15.7,0,0,0-3.7-2.64,42.46,42.46,0,0,0-5.57-2.4,109.08,109.08,0,0,1-10.26-4.32,34.59,34.59,0,0,1-7.87-5.16,20.3,20.3,0,0,1-5-6.75,22.87,22.87,0,0,1,0-17.45,19.41,19.41,0,0,1,4.73-6.51,24,24,0,0,1,7.29-4.44,31.93,31.93,0,0,1,9.46-2.1l.16-11.53,9.28.14-.17,11.68a28.77,28.77,0,0,1,9,2.78,21.82,21.82,0,0,1,11.09,12.84,29.14,29.14,0,0,1,1.4,9.75l-16.76-.25q.09-6.45-2.73-9.71a9.79,9.79,0,0,0-7.64-3.31,12.27,12.27,0,0,0-4.5.66,8.43,8.43,0,0,0-3.13,1.95,7.76,7.76,0,0,0-1.84,3,11.46,11.46,0,0,0-.64,3.71,10.67,10.67,0,0,0,.53,3.62,7.89,7.89,0,0,0,2,3,15.9,15.9,0,0,0,3.73,2.64,52.29,52.29,0,0,0,5.79,2.58q5.59,2.19,10.17,4.46a34.71,34.71,0,0,1,7.84,5.21,19.59,19.59,0,0,1,6.73,15.86,21,21,0,0,1-1.78,8.48,18.88,18.88,0,0,1-4.76,6.45,23.29,23.29,0,0,1-7.34,4.31,34.7,34.7,0,0,1-9.51,2l-.16,10.72-9.22-.14.16-10.66a38.94,38.94,0,0,1-9.28-2.24A24.66,24.66,0,0,1,469,820a22.1,22.1,0,0,1-5.46-7.76,26.88,26.88,0,0,1-1.93-11.13l16.76.25a16.73,16.73,0,0,0,1,6.4,10.76,10.76,0,0,0,2.81,4.13,10.55,10.55,0,0,0,4.06,2.22,17.86,17.86,0,0,0,4.66.68,14.64,14.64,0,0,0,4.79-.63,9.7,9.7,0,0,0,3.48-1.89,7.89,7.89,0,0,0,2.13-2.9A9.67,9.67,0,0,0,502,805.73Z"/><path class="cls-4" d="M2038.81,830.78l-579.09,538.63L1161.6,1087.06c-55.82,54.64-142,139-228.73,223.62-59.26,57.84-107.23,104.57-146.12,142.4l-270.81-.32c75.11-71.09,377.52-366.55,581.25-566.23l62.29-61,301.37,285.44L1903.3,699.37Z"/><polygon class="cls-4" points="1831.57 634.56 2104.48 921.74 2159.06 593.98 1831.57 634.56"/><path class="cls-5" d="M.12,1449.66H2499.88a.12.12,0,0,1,.12.12v6.4a.11.11,0,0,1-.11.11H.12a.12.12,0,0,1-.12-.12v-6.4A.12.12,0,0,1,.12,1449.66Z"/><path class="cls-6" d="M680.31,1430v14.82a5,5,0,0,1-1.17,3.18,6.75,6.75,0,0,1-3.19,2.14,7.22,7.22,0,0,1-1.24.29,7.88,7.88,0,0,1-1.2.09H392.57c-3.63,0-6.61-2.41-6.79-5.41,0-.1,0-.2,0-.29V1430c0-.09,0-.19,0-.29.18-3,3.16-5.41,6.79-5.41H673.51a7.88,7.88,0,0,1,1.2.09,7.22,7.22,0,0,1,1.24.29,6.75,6.75,0,0,1,3.19,2.14A5,5,0,0,1,680.31,1430Z"/><path class="cls-7" d="M542.35,1450.56H391.84a5.94,5.94,0,0,1-6.06-5.41c0-.1,0-.2,0-.29V1430c0-.09,0-.19,0-.29a5.94,5.94,0,0,1,6.06-5.41h132A45.9,45.9,0,0,0,542.35,1450.56Z"/><rect class="cls-7" x="642.93" y="1424.34" width="3.19" height="26.23"/><rect class="cls-7" x="632.12" y="1424.34" width="3.19" height="26.23"/><rect class="cls-7" x="619.16" y="1424.34" width="3.19" height="26.23"/><rect class="cls-7" x="599.29" y="1424.34" width="3.19" height="26.23"/><rect class="cls-7" x="578.28" y="1424.34" width="3.19" height="26.23"/><rect class="cls-7" x="546.07" y="1424.34" width="3.19" height="26.23"/><rect class="cls-7" x="515.92" y="1424.34" width="3.19" height="26.23"/><rect class="cls-7" x="488.99" y="1424.34" width="3.19" height="26.23"/><rect class="cls-7" x="653.22" y="1424.34" width="3.19" height="26.23"/><rect class="cls-7" x="660.01" y="1424.34" width="3.19" height="26.23"/><rect class="cls-7" x="666.58" y="1424.34" width="3.19" height="26.23"/><path class="cls-7" d="M674.71,1424.43v26a7.88,7.88,0,0,1-1.2.09h-2v-26.22h2A7.88,7.88,0,0,1,674.71,1424.43Z"/><path class="cls-7" d="M679.14,1426.86V1448a6.75,6.75,0,0,1-3.19,2.14v-25.46A6.75,6.75,0,0,1,679.14,1426.86Z"/><path class="cls-6" d="M650.27,1403.82v14.81a5,5,0,0,1-1.17,3.18,6.7,6.7,0,0,1-3.19,2.14,7,7,0,0,1-1.24.29,7.88,7.88,0,0,1-1.2.1H362.53c-3.62,0-6.61-2.41-6.79-5.42,0-.1,0-.19,0-.29v-14.81c0-.1,0-.2,0-.3.18-3,3.17-5.41,6.79-5.41H643.47l.54,0,.23,0a1.07,1.07,0,0,1,.25,0l.18,0a7,7,0,0,1,1.24.29l.18.06.17.07.35.14a.82.82,0,0,1,.19.09l.17.08.32.17c.12.07.24.14.35.22l.26.18h0l.17.13a5.15,5.15,0,0,1,.5.43l.13.13a.86.86,0,0,1,.13.14,3.47,3.47,0,0,1,.25.29A5,5,0,0,1,650.27,1403.82Z"/><path class="cls-7" d="M512.31,1424.34H361.8a5.94,5.94,0,0,1-6.06-5.42c0-.1,0-.19,0-.29v-14.81c0-.1,0-.2,0-.3a5.94,5.94,0,0,1,6.06-5.41h132c.06.21.12.43.19.65A45.85,45.85,0,0,0,512.31,1424.34Z"/><rect class="cls-7" x="612.89" y="1398.11" width="3.19" height="26.23"/><rect class="cls-7" x="602.08" y="1398.11" width="3.19" height="26.23"/><rect class="cls-7" x="589.12" y="1398.11" width="3.19" height="26.23"/><rect class="cls-7" x="569.25" y="1398.11" width="3.19" height="26.23"/><rect class="cls-7" x="548.24" y="1398.11" width="3.19" height="26.23"/><rect class="cls-7" x="516.04" y="1398.11" width="3.19" height="26.23"/><rect class="cls-7" x="485.88" y="1398.11" width="3.19" height="26.23"/><rect class="cls-7" x="458.95" y="1398.11" width="3.19" height="26.23"/><rect class="cls-7" x="623.18" y="1398.11" width="3.19" height="26.23"/><rect class="cls-7" x="629.97" y="1398.11" width="3.19" height="26.23"/><rect class="cls-7" x="636.54" y="1398.11" width="3.19" height="26.23"/><path class="cls-7" d="M644.67,1398.2v26a7.88,7.88,0,0,1-1.2.1h-2v-26.23h2A7.88,7.88,0,0,1,644.67,1398.2Z"/><path class="cls-7" d="M649.1,1400.63v21.18a6.7,6.7,0,0,1-3.19,2.14v-25.46A6.77,6.77,0,0,1,649.1,1400.63Z"/><path class="cls-6" d="M664.78,1378.24v14.81a5,5,0,0,1-1.16,3.18,6.8,6.8,0,0,1-3.19,2.14,7.45,7.45,0,0,1-1.24.29,8,8,0,0,1-1.2.1H377a7.86,7.86,0,0,1-3.13-.65,5.81,5.81,0,0,1-3.63-4.51l0-.26v-15.4c.19-3,3.17-5.41,6.79-5.41H658a8,8,0,0,1,1.2.09,7.45,7.45,0,0,1,1.24.29,6.87,6.87,0,0,1,3.19,2.14A5,5,0,0,1,664.78,1378.24Z"/><path class="cls-7" d="M526.83,1398.76H376.32a6.37,6.37,0,0,1-2.8-.65,5.73,5.73,0,0,1-3.24-4.51l0-.26v-15.4a6,6,0,0,1,6.07-5.41h132a46,46,0,0,0,17.56,25.58Z"/><rect class="cls-7" x="627.41" y="1372.53" width="3.19" height="26.23"/><rect class="cls-7" x="616.6" y="1372.53" width="3.19" height="26.23"/><rect class="cls-7" x="603.64" y="1372.53" width="3.19" height="26.23"/><rect class="cls-7" x="583.77" y="1372.53" width="3.19" height="26.23"/><rect class="cls-7" x="562.76" y="1372.53" width="3.19" height="26.23"/><rect class="cls-7" x="530.55" y="1372.53" width="3.19" height="26.23"/><rect class="cls-7" x="500.4" y="1372.53" width="3.19" height="26.23"/><rect class="cls-7" x="473.47" y="1372.53" width="3.19" height="26.23"/><rect class="cls-7" x="637.69" y="1372.53" width="3.19" height="26.23"/><rect class="cls-7" x="644.49" y="1372.53" width="3.19" height="26.23"/><rect class="cls-7" x="651.05" y="1372.53" width="3.19" height="26.23"/><path class="cls-7" d="M659.19,1372.62v26a8,8,0,0,1-1.2.1h-2v-26.23h2A8,8,0,0,1,659.19,1372.62Z"/><path class="cls-7" d="M663.62,1375.05v21.18a6.75,6.75,0,0,1-3.19,2.14v-25.46A6.82,6.82,0,0,1,663.62,1375.05Z"/><path class="cls-6" d="M671.51,1352v14.81a5,5,0,0,1-1.16,3.19,6.78,6.78,0,0,1-3.19,2.13,7.47,7.47,0,0,1-1.24.3,8,8,0,0,1-1.2.09h-281c-3.62,0-6.6-2.41-6.79-5.42v-15.39c.17-2.79,2.74-5,6-5.38a7,7,0,0,1,.8,0h281a8,8,0,0,1,1.2.09,6.59,6.59,0,0,1,1.24.3,6.78,6.78,0,0,1,3.19,2.13A5,5,0,0,1,671.51,1352Z"/><path class="cls-7" d="M533.56,1372.53H383.05a6,6,0,0,1-6.07-5.42v-15.39a5.91,5.91,0,0,1,5.35-5.38,5.58,5.58,0,0,1,.72,0h132a.06.06,0,0,1,0,0A46,46,0,0,0,533.56,1372.53Z"/><rect class="cls-7" x="634.13" y="1346.3" width="3.19" height="26.23"/><rect class="cls-7" x="623.33" y="1346.3" width="3.19" height="26.23"/><rect class="cls-7" x="610.37" y="1346.3" width="3.19" height="26.23"/><rect class="cls-7" x="590.5" y="1346.3" width="3.19" height="26.23"/><rect class="cls-7" x="569.49" y="1346.3" width="3.19" height="26.23"/><rect class="cls-7" x="537.28" y="1346.3" width="3.19" height="26.23"/><rect class="cls-7" x="507.13" y="1346.3" width="3.19" height="26.23"/><rect class="cls-7" x="480.2" y="1346.3" width="3.19" height="26.23"/><rect class="cls-7" x="644.42" y="1346.3" width="3.19" height="26.23"/><rect class="cls-7" x="651.22" y="1346.3" width="3.19" height="26.23"/><rect class="cls-7" x="657.78" y="1346.3" width="3.19" height="26.23"/><path class="cls-7" d="M665.92,1346.39v26a8,8,0,0,1-1.2.1h-2V1346.3h2A8,8,0,0,1,665.92,1346.39Z"/><path class="cls-7" d="M670.35,1348.82V1370a6.78,6.78,0,0,1-3.19,2.13v-25.46A6.87,6.87,0,0,1,670.35,1348.82Z"/><path class="cls-6" d="M650.86,1325.82v14.81a5,5,0,0,1-1.17,3.19,6.77,6.77,0,0,1-3.19,2.14,7,7,0,0,1-1.24.29l-.39,0-.23,0H363.12c-3.62,0-6.61-2.41-6.79-5.41,0-.1,0-.2,0-.3v-14.81c0-.1,0-.19,0-.29a1.94,1.94,0,0,1,0-.24,6.16,6.16,0,0,1,5.09-5l.21,0a7.88,7.88,0,0,1,1.47-.14H644.06a6.08,6.08,0,0,1,.61,0l.27,0h0l.32,0a7,7,0,0,1,1.24.29,6.7,6.7,0,0,1,3.19,2.14A5,5,0,0,1,650.86,1325.82Z"/><path class="cls-7" d="M512.9,1346.34H362.39a5.94,5.94,0,0,1-6.06-5.41c0-.1,0-.2,0-.3v-14.81c0-.1,0-.19,0-.29a1.94,1.94,0,0,1,0-.24,5.85,5.85,0,0,1,4.71-5,1.09,1.09,0,0,1,.26,0,5.39,5.39,0,0,1,1.07-.1h132a1.05,1.05,0,0,0,.05.19,46,46,0,0,0,18.37,26Z"/><rect class="cls-7" x="613.48" y="1320.11" width="3.19" height="26.23"/><rect class="cls-7" x="602.67" y="1320.11" width="3.19" height="26.23"/><rect class="cls-7" x="589.71" y="1320.11" width="3.19" height="26.23"/><rect class="cls-7" x="569.84" y="1320.11" width="3.19" height="26.23"/><rect class="cls-7" x="548.84" y="1320.11" width="3.19" height="26.23"/><rect class="cls-7" x="516.63" y="1320.11" width="3.19" height="26.23"/><rect class="cls-7" x="486.47" y="1320.11" width="3.19" height="26.23"/><rect class="cls-7" x="459.54" y="1320.11" width="3.19" height="26.23"/><rect class="cls-7" x="623.77" y="1320.11" width="3.19" height="26.23"/><rect class="cls-7" x="630.57" y="1320.11" width="3.19" height="26.23"/><rect class="cls-7" x="637.13" y="1320.11" width="3.19" height="26.23"/><path class="cls-7" d="M645.26,1320.2v26a7.88,7.88,0,0,1-1.2.09h-2v-26.23h2A7.88,7.88,0,0,1,645.26,1320.2Z"/><path class="cls-7" d="M649.69,1322.63v21.19a6.77,6.77,0,0,1-3.19,2.14V1320.5A6.75,6.75,0,0,1,649.69,1322.63Z"/><path class="cls-6" d="M650.27,1299.78v14.81a5,5,0,0,1-1.17,3.19,6.77,6.77,0,0,1-3.19,2.14,7.64,7.64,0,0,1-1,.24h0l-.27,0a7.88,7.88,0,0,1-1.2.09H362.53a8.49,8.49,0,0,1-.88,0l-.33,0c-3.06-.47-5.42-2.66-5.58-5.32,0-.1,0-.2,0-.3v-14.81c0-.1,0-.2,0-.29.18-3,3.17-5.42,6.79-5.42H643.47l.54,0,.23,0,.25,0,.18,0a7,7,0,0,1,1.24.3l.18.06.17.06.35.14c.12.06.24.11.36.18l.32.17.35.21.26.18,0,0a1.09,1.09,0,0,1,.17.13,5,5,0,0,1,.5.42l.13.13.13.14.25.29A5.05,5.05,0,0,1,650.27,1299.78Z"/><path class="cls-7" d="M512.31,1320.3H361.44l-.38,0a5.88,5.88,0,0,1-5.32-5.37c0-.1,0-.2,0-.3v-14.81c0-.1,0-.2,0-.29a5.94,5.94,0,0,1,6.06-5.42h132c.06.22.12.43.19.65a45.88,45.88,0,0,0,18,25.39Z"/><rect class="cls-7" x="612.89" y="1294.07" width="3.19" height="26.23"/><rect class="cls-7" x="602.08" y="1294.07" width="3.19" height="26.23"/><rect class="cls-7" x="589.12" y="1294.07" width="3.19" height="26.23"/><rect class="cls-7" x="569.25" y="1294.07" width="3.19" height="26.23"/><rect class="cls-7" x="548.24" y="1294.07" width="3.19" height="26.23"/><rect class="cls-7" x="516.04" y="1294.07" width="3.19" height="26.23"/><rect class="cls-7" x="485.88" y="1294.07" width="3.19" height="26.23"/><rect class="cls-7" x="458.95" y="1294.07" width="3.19" height="26.23"/><rect class="cls-7" x="623.18" y="1294.07" width="3.19" height="26.23"/><rect class="cls-7" x="629.97" y="1294.07" width="3.19" height="26.23"/><rect class="cls-7" x="636.54" y="1294.07" width="3.19" height="26.23"/><path class="cls-7" d="M644.67,1294.16v26a7.88,7.88,0,0,1-1.2.09h-2v-26.23h2A7.88,7.88,0,0,1,644.67,1294.16Z"/><path class="cls-7" d="M649.1,1296.59v21.19a6.77,6.77,0,0,1-3.19,2.14v-25.46A6.75,6.75,0,0,1,649.1,1296.59Z"/><path class="cls-6" d="M664.78,1274.2V1289a5,5,0,0,1-1.16,3.19,6.78,6.78,0,0,1-3.19,2.13,7.47,7.47,0,0,1-1.24.3,8,8,0,0,1-1.2.09H377a7.69,7.69,0,0,1-3.13-.65,5.8,5.8,0,0,1-3.63-4.51l0-.26v-15.39c.19-3,3.17-5.42,6.79-5.42H658a8,8,0,0,1,1.2.09,7.47,7.47,0,0,1,1.24.3,6.78,6.78,0,0,1,3.19,2.13A5,5,0,0,1,664.78,1274.2Z"/><path class="cls-7" d="M526.83,1294.72H376.32a6.24,6.24,0,0,1-2.8-.65,5.72,5.72,0,0,1-3.24-4.51l0-.26v-15.39a6,6,0,0,1,6.07-5.42h132a46,46,0,0,0,17.56,25.58C526.21,1294.29,526.51,1294.51,526.83,1294.72Z"/><rect class="cls-7" x="627.41" y="1268.49" width="3.19" height="26.23"/><rect class="cls-7" x="616.6" y="1268.49" width="3.19" height="26.23"/><rect class="cls-7" x="603.64" y="1268.49" width="3.19" height="26.23"/><rect class="cls-7" x="583.77" y="1268.49" width="3.19" height="26.23"/><rect class="cls-7" x="562.76" y="1268.49" width="3.19" height="26.23"/><rect class="cls-7" x="530.55" y="1268.49" width="3.19" height="26.23"/><rect class="cls-7" x="500.4" y="1268.49" width="3.19" height="26.23"/><rect class="cls-7" x="473.47" y="1268.49" width="3.19" height="26.23"/><rect class="cls-7" x="637.69" y="1268.49" width="3.19" height="26.23"/><rect class="cls-7" x="644.49" y="1268.49" width="3.19" height="26.23"/><rect class="cls-7" x="651.05" y="1268.49" width="3.19" height="26.23"/><path class="cls-7" d="M659.19,1268.58v26.05a8,8,0,0,1-1.2.09h-2v-26.23h2A8,8,0,0,1,659.19,1268.58Z"/><path class="cls-7" d="M663.62,1271v21.19a6.82,6.82,0,0,1-3.19,2.14v-25.46A6.73,6.73,0,0,1,663.62,1271Z"/><path class="cls-6" d="M687.74,1248v14.81a5.08,5.08,0,0,1-1.16,3.19,6.87,6.87,0,0,1-3.19,2.14,7.33,7.33,0,0,1-1.25.29,7.85,7.85,0,0,1-1.19.09H400c-3.62,0-6.6-2.41-6.79-5.41v-15.4c.17-2.78,2.74-5,6-5.38.26,0,.53,0,.8,0H681a7.85,7.85,0,0,1,1.19.1,7.33,7.33,0,0,1,1.25.29,6.8,6.8,0,0,1,3.19,2.14A5.05,5.05,0,0,1,687.74,1248Z"/><path class="cls-7" d="M549.79,1268.49H399.27a5.94,5.94,0,0,1-6.06-5.41v-15.4a5.91,5.91,0,0,1,5.35-5.38c.23,0,.47,0,.71,0h132v0A46,46,0,0,0,549.79,1268.49Z"/><rect class="cls-7" x="650.37" y="1242.26" width="3.19" height="26.23"/><rect class="cls-7" x="639.56" y="1242.26" width="3.19" height="26.23"/><rect class="cls-7" x="626.6" y="1242.26" width="3.19" height="26.23"/><rect class="cls-7" x="606.73" y="1242.26" width="3.19" height="26.23"/><rect class="cls-7" x="585.72" y="1242.26" width="3.19" height="26.23"/><rect class="cls-7" x="553.51" y="1242.26" width="3.19" height="26.23"/><rect class="cls-7" x="523.36" y="1242.26" width="3.19" height="26.23"/><rect class="cls-7" x="496.43" y="1242.26" width="3.19" height="26.23"/><rect class="cls-7" x="660.65" y="1242.26" width="3.19" height="26.23"/><rect class="cls-7" x="667.45" y="1242.26" width="3.19" height="26.23"/><rect class="cls-7" x="674.01" y="1242.26" width="3.19" height="26.23"/><path class="cls-7" d="M682.14,1242.36v26a7.75,7.75,0,0,1-1.19.09h-2v-26.23h2A7.74,7.74,0,0,1,682.14,1242.36Z"/><path class="cls-7" d="M686.58,1244.79V1266a6.87,6.87,0,0,1-3.19,2.14v-25.46A6.8,6.8,0,0,1,686.58,1244.79Z"/><path class="cls-6" d="M650.86,1221.79v14.81a5,5,0,0,1-1.17,3.18,6.7,6.7,0,0,1-3.19,2.14,7,7,0,0,1-1.24.29l-.39,0-.32,0H363.12c-3.62,0-6.61-2.41-6.79-5.41,0-.1,0-.2,0-.29v-14.81c0-.1,0-.2,0-.3.18-3,3.17-5.41,6.79-5.41h281.3a7.48,7.48,0,0,1,.84.08,7,7,0,0,1,1.24.29c.21.07.41.14.59.22l.35.16,0,0,.34.18.06,0a3,3,0,0,1,.3.19,5.6,5.6,0,0,1,.68.49l.19.17,0,0,.11.11,0,0,.2.21a2.61,2.61,0,0,1,.27.31A5,5,0,0,1,650.86,1221.79Z"/><path class="cls-7" d="M512.9,1242.3H362.39a5.94,5.94,0,0,1-6.06-5.41c0-.1,0-.2,0-.29v-14.81c0-.1,0-.2,0-.3a5.94,5.94,0,0,1,6.06-5.41h132c.05.2.11.4.17.6a45.86,45.86,0,0,0,18.25,25.58Z"/><rect class="cls-7" x="613.48" y="1216.08" width="3.19" height="26.23"/><rect class="cls-7" x="602.67" y="1216.08" width="3.19" height="26.23"/><rect class="cls-7" x="589.71" y="1216.08" width="3.19" height="26.23"/><rect class="cls-7" x="569.84" y="1216.08" width="3.19" height="26.23"/><rect class="cls-7" x="548.84" y="1216.08" width="3.19" height="26.23"/><rect class="cls-7" x="516.63" y="1216.08" width="3.19" height="26.23"/><rect class="cls-7" x="486.47" y="1216.08" width="3.19" height="26.23"/><rect class="cls-7" x="459.54" y="1216.08" width="3.19" height="26.23"/><rect class="cls-7" x="623.77" y="1216.08" width="3.19" height="26.23"/><rect class="cls-7" x="630.57" y="1216.08" width="3.19" height="26.23"/><rect class="cls-7" x="637.13" y="1216.08" width="3.19" height="26.23"/><path class="cls-7" d="M645.26,1216.17v26a7.88,7.88,0,0,1-1.2.09h-2v-26.22h2A7.88,7.88,0,0,1,645.26,1216.17Z"/><path class="cls-7" d="M649.69,1218.6v21.18a6.7,6.7,0,0,1-3.19,2.14v-25.46A6.77,6.77,0,0,1,649.69,1218.6Z"/><path class="cls-6" d="M671.51,1196.16V1211a5,5,0,0,1-1.16,3.19,6.8,6.8,0,0,1-3.19,2.14,7.45,7.45,0,0,1-1.24.29,8,8,0,0,1-1.2.09h-281a7.69,7.69,0,0,1-3-.6,5.86,5.86,0,0,1-3.74-4.58,2,2,0,0,0,0-.23v-15.4c.17-2.78,2.74-5,6-5.37a7,7,0,0,1,.8,0h281a8,8,0,0,1,1.2.09,7.45,7.45,0,0,1,1.24.29,6.8,6.8,0,0,1,3.19,2.14A5,5,0,0,1,671.51,1196.16Z"/><path class="cls-7" d="M533.56,1216.68H383.05a6.23,6.23,0,0,1-2.71-.6,5.76,5.76,0,0,1-3.34-4.58,2,2,0,0,0,0-.23v-15.4a5.89,5.89,0,0,1,5.35-5.37,5.58,5.58,0,0,1,.72,0h132v0a46.07,46.07,0,0,0,17.61,25.58Z"/><rect class="cls-7" x="634.13" y="1190.46" width="3.19" height="26.23"/><rect class="cls-7" x="623.33" y="1190.46" width="3.19" height="26.23"/><rect class="cls-7" x="610.37" y="1190.46" width="3.19" height="26.23"/><rect class="cls-7" x="590.5" y="1190.46" width="3.19" height="26.23"/><rect class="cls-7" x="569.49" y="1190.46" width="3.19" height="26.23"/><rect class="cls-7" x="537.28" y="1190.46" width="3.19" height="26.23"/><rect class="cls-7" x="507.13" y="1190.46" width="3.19" height="26.23"/><rect class="cls-7" x="480.2" y="1190.46" width="3.19" height="26.23"/><rect class="cls-7" x="644.42" y="1190.46" width="3.19" height="26.23"/><rect class="cls-7" x="651.22" y="1190.46" width="3.19" height="26.23"/><rect class="cls-7" x="657.78" y="1190.46" width="3.19" height="26.23"/><path class="cls-7" d="M665.92,1190.55v26a8,8,0,0,1-1.2.09h-2v-26.22h2A8,8,0,0,1,665.92,1190.55Z"/><path class="cls-7" d="M670.35,1193v21.18a6.87,6.87,0,0,1-3.19,2.14v-25.46A6.8,6.8,0,0,1,670.35,1193Z"/><path class="cls-6" d="M680.31,1170v14.81a5,5,0,0,1-1.17,3.18,6.75,6.75,0,0,1-3.19,2.14,7.22,7.22,0,0,1-1.24.29l-.4.06h-.22l-.22,0H392.57c-3.63,0-6.61-2.41-6.79-5.42a2.81,2.81,0,0,1,0-.29V1170c0-.1,0-.2,0-.3.18-3,3.16-5.41,6.79-5.41H673.51a7.88,7.88,0,0,1,1.2.09,7.22,7.22,0,0,1,1.24.29,6.82,6.82,0,0,1,3.19,2.14A5,5,0,0,1,680.31,1170Z"/><path class="cls-7" d="M542.35,1190.5H391.84a5.94,5.94,0,0,1-6.06-5.42,2.81,2.81,0,0,1,0-.29V1170c0-.1,0-.2,0-.3a5.94,5.94,0,0,1,6.06-5.41h132a46,46,0,0,0,18.42,26.19Z"/><rect class="cls-7" x="642.93" y="1164.27" width="3.19" height="26.23"/><rect class="cls-7" x="632.12" y="1164.27" width="3.19" height="26.23"/><rect class="cls-7" x="619.16" y="1164.27" width="3.19" height="26.23"/><rect class="cls-7" x="599.29" y="1164.27" width="3.19" height="26.23"/><rect class="cls-7" x="578.28" y="1164.27" width="3.19" height="26.23"/><rect class="cls-7" x="546.08" y="1164.27" width="3.19" height="26.23"/><rect class="cls-7" x="515.92" y="1164.27" width="3.19" height="26.23"/><rect class="cls-7" x="488.99" y="1164.27" width="3.19" height="26.23"/><rect class="cls-7" x="653.22" y="1164.27" width="3.19" height="26.23"/><rect class="cls-7" x="660.01" y="1164.27" width="3.19" height="26.23"/><rect class="cls-7" x="666.58" y="1164.27" width="3.19" height="26.23"/><path class="cls-7" d="M674.71,1164.36v26a6.78,6.78,0,0,1-1.2.1h-2v-26.23h2A7.88,7.88,0,0,1,674.71,1164.36Z"/><path class="cls-7" d="M679.14,1166.79V1188a6.75,6.75,0,0,1-3.19,2.14v-25.46A6.82,6.82,0,0,1,679.14,1166.79Z"/><circle class="cls-8" cx="369.48" cy="1317.11" r="133.52" transform="translate(-823.12 647.03) rotate(-45)"/><circle class="cls-6" cx="357.83" cy="1317.11" r="133.52" transform="translate(-826.53 638.8) rotate(-45)"/><path class="cls-7" d="M357.83,1440.34a121.65,121.65,0,1,1,86-35.63A120.89,120.89,0,0,1,357.83,1440.34Zm0-236a114.4,114.4,0,1,0,114.4,114.4A114.52,114.52,0,0,0,357.83,1204.29Z"/><path class="cls-7" d="M374.58,1354a20.13,20.13,0,0,0-.29-7.06,14.64,14.64,0,0,0-3-5.87,27.35,27.35,0,0,0-6-5.26,73.55,73.55,0,0,0-9.25-5.19,190,190,0,0,1-17.1-9.39,60.8,60.8,0,0,1-12.78-10.4,35.59,35.59,0,0,1-7.54-12.68,40.18,40.18,0,0,1,3.25-30.4,33.71,33.71,0,0,1,9.42-10.47,42,42,0,0,1,13.5-6.43,56.17,56.17,0,0,1,16.85-1.94l2.38-20.06,16.14,1.92-2.41,20.33a50.62,50.62,0,0,1,15.19,6.46,38.23,38.23,0,0,1,17,24.39,50.93,50.93,0,0,1,.66,17.23l-29.15-3.45q1.33-11.25-3-17.42t-12.71-7.16a21.89,21.89,0,0,0-8,.34,14.69,14.69,0,0,0-5.81,2.83,13.76,13.76,0,0,0-3.75,4.83,20.15,20.15,0,0,0-1.77,6.34,18.49,18.49,0,0,0,.26,6.4,13.75,13.75,0,0,0,2.86,5.61,27.81,27.81,0,0,0,6,5.28,93.13,93.13,0,0,0,9.62,5.56q9.35,4.82,16.91,9.61a61.34,61.34,0,0,1,12.72,10.48,34.43,34.43,0,0,1,8.85,28.85,36.66,36.66,0,0,1-4.63,14.46,33.34,33.34,0,0,1-9.47,10.37,40.71,40.71,0,0,1-13.57,6.19,60.93,60.93,0,0,1-16.93,1.79l-2.21,18.64-16-1.9,2.2-18.55a68.53,68.53,0,0,1-15.76-5.58,43,43,0,0,1-12.9-9.75,38.57,38.57,0,0,1-8.1-14.5q-2.68-8.49-1.34-19.73l29.15,3.46a29,29,0,0,0,.54,11.32,18.8,18.8,0,0,0,4.15,7.71,18.28,18.28,0,0,0,6.67,4.6,31.39,31.39,0,0,0,8,2,26.16,26.16,0,0,0,8.47-.23,17.38,17.38,0,0,0,6.4-2.67,13.84,13.84,0,0,0,4.24-4.67A17,17,0,0,0,374.58,1354Z"/><path class="cls-4" d="M618.05,1000.88s-16.19,22.79-31,23.11-37.42-10.57-37.42-10.57-13.63-30.37-4.39-42.25c0,0,9.27-4.07,19,3.11a29,29,0,0,1,5,4.81,15.87,15.87,0,0,0,7.8,5.28c10.59,3.22,23.16-4.36,27.86,3A49.55,49.55,0,0,0,613,997,37.79,37.79,0,0,0,618.05,1000.88Z"/><path class="cls-4" d="M407,1165.28S464.21,1026.63,567.21,1024c0,0,95.08,10.56,100.36,141.29Z"/><path class="cls-9" d="M539,1028.22s41.28,9.18,54,3.79c0,0,1.92-17.27-15.46-14.85-11.9,1.66-19.65-4.06-24.21-6.38C546.9,1007.5,537.28,1021,539,1028.22Z"/><path class="cls-9" d="M574.93,1002.2c-2.65,2-10.75-27.92-10.75-27.92a29,29,0,0,1,5,4.81,15.87,15.87,0,0,0,7.8,5.28C577,985.24,577.49,1000.27,574.93,1002.2Z"/><path class="cls-9" d="M613,997c-.58.34-19.67,11.78-22.26,11.78s14.08-21.47,14.08-21.47A49.55,49.55,0,0,0,613,997Z"/><path class="cls-9" d="M462.89,1126.54c-1.05-.9,40.5-61.18,51.94-61.62s37.16,13.21,55.78,15,36.66-3.52,40.18,7.48,13.21,50,7.26,56.26S485.74,1146.06,462.89,1126.54Z"/><path class="cls-6" d="M2262.52,1436.11v10.14a3.47,3.47,0,0,1-.79,2.18,4.64,4.64,0,0,1-2.19,1.46,4.78,4.78,0,0,1-.85.2,5.55,5.55,0,0,1-.82.06H2065.59c-2.48,0-4.52-1.65-4.65-3.7v-10.54c.13-2.06,2.17-3.71,4.65-3.71h192.28a4.47,4.47,0,0,1,.82.07,4.78,4.78,0,0,1,.85.2,4.64,4.64,0,0,1,2.19,1.46A3.45,3.45,0,0,1,2262.52,1436.11Z"/><path class="cls-7" d="M2168.1,1450.15h-103a4.07,4.07,0,0,1-4.15-3.7v-10.54a4.07,4.07,0,0,1,4.15-3.71h90.36A31.43,31.43,0,0,0,2168.1,1450.15Z"/><rect class="cls-7" x="2236.94" y="1432.2" width="2.18" height="17.95"/><rect class="cls-7" x="2229.54" y="1432.2" width="2.19" height="17.95"/><rect class="cls-7" x="2220.67" y="1432.2" width="2.19" height="17.95"/><rect class="cls-7" x="2207.07" y="1432.2" width="2.19" height="17.95"/><rect class="cls-7" x="2192.7" y="1432.2" width="2.19" height="17.95"/><rect class="cls-7" x="2170.65" y="1432.2" width="2.19" height="17.95"/><rect class="cls-7" x="2150.01" y="1432.2" width="2.18" height="17.95"/><rect class="cls-7" x="2131.58" y="1432.2" width="2.19" height="17.95"/><rect class="cls-7" x="2243.98" y="1432.2" width="2.18" height="17.95"/><rect class="cls-7" x="2248.63" y="1432.2" width="2.18" height="17.95"/><rect class="cls-7" x="2253.13" y="1432.2" width="2.19" height="17.95"/><path class="cls-7" d="M2258.69,1432.27v17.82a5.55,5.55,0,0,1-.82.06h-1.37v-18h1.37A4.47,4.47,0,0,1,2258.69,1432.27Z"/><path class="cls-7" d="M2261.73,1433.93v14.5a4.64,4.64,0,0,1-2.19,1.46v-17.42A4.64,4.64,0,0,1,2261.73,1433.93Z"/><path class="cls-6" d="M2242,1418.16v10.14a3.49,3.49,0,0,1-.79,2.18,5,5,0,0,1-3,1.66,5.46,5.46,0,0,1-.82.06H2045c-2.48,0-4.52-1.65-4.65-3.7V1418c.13-2.06,2.17-3.71,4.65-3.71h192.28l.37,0h.16l.17,0,.12,0a4.59,4.59,0,0,1,.85.2l.13,0,.11,0,.24.1.13.06.12.06.22.11.24.15.18.13h0l.12.09c.11.09.23.19.33.29l.1.09a.43.43,0,0,0,.09.1l.17.2A3.45,3.45,0,0,1,2242,1418.16Z"/><path class="cls-7" d="M2147.54,1432.2h-103a4.07,4.07,0,0,1-4.15-3.7V1418a4.07,4.07,0,0,1,4.15-3.71h90.36c0,.15.08.3.13.45A31.39,31.39,0,0,0,2147.54,1432.2Z"/><rect class="cls-7" x="2216.38" y="1414.25" width="2.18" height="17.95"/><rect class="cls-7" x="2208.98" y="1414.25" width="2.19" height="17.95"/><rect class="cls-7" x="2200.11" y="1414.25" width="2.19" height="17.95"/><rect class="cls-7" x="2186.52" y="1414.25" width="2.18" height="17.95"/><rect class="cls-7" x="2172.14" y="1414.25" width="2.19" height="17.95"/><rect class="cls-7" x="2150.09" y="1414.25" width="2.19" height="17.95"/><rect class="cls-7" x="2129.46" y="1414.25" width="2.18" height="17.95"/><rect class="cls-7" x="2111.03" y="1414.25" width="2.19" height="17.95"/><rect class="cls-7" x="2223.42" y="1414.25" width="2.19" height="17.95"/><rect class="cls-7" x="2228.07" y="1414.25" width="2.19" height="17.95"/><rect class="cls-7" x="2232.57" y="1414.25" width="2.19" height="17.95"/><path class="cls-7" d="M2238.13,1414.31v17.83a5.46,5.46,0,0,1-.82.06H2236v-18h1.36A5.46,5.46,0,0,1,2238.13,1414.31Z"/><path class="cls-7" d="M2241.17,1416v14.5a4.67,4.67,0,0,1-2.19,1.46v-17.42A4.52,4.52,0,0,1,2241.17,1416Z"/><path class="cls-6" d="M2251.9,1400.65v10.14a3.4,3.4,0,0,1-.8,2.18,4.61,4.61,0,0,1-2.18,1.46,4.78,4.78,0,0,1-.85.2,4.47,4.47,0,0,1-.82.07H2055a5.19,5.19,0,0,1-2.14-.45,4,4,0,0,1-2.49-3.08c0-.06,0-.12,0-.18a1.34,1.34,0,0,1,0-.2v-10.14a1.34,1.34,0,0,1,0-.2c.12-2,2.17-3.7,4.64-3.7h192.29a5.55,5.55,0,0,1,.82.06,4.78,4.78,0,0,1,.85.2,4.61,4.61,0,0,1,2.18,1.46A3.4,3.4,0,0,1,2251.9,1400.65Z"/><path class="cls-7" d="M2157.48,1414.7h-103a4.26,4.26,0,0,1-1.91-.45,3.94,3.94,0,0,1-2.22-3.08c0-.06,0-.12,0-.18a1.34,1.34,0,0,1,0-.2v-10.14a1.34,1.34,0,0,1,0-.2,4.06,4.06,0,0,1,4.14-3.7h90.37a31.43,31.43,0,0,0,12,17.5Z"/><rect class="cls-7" x="2226.32" y="1396.75" width="2.19" height="17.95"/><rect class="cls-7" x="2218.92" y="1396.75" width="2.19" height="17.95"/><rect class="cls-7" x="2210.05" y="1396.75" width="2.19" height="17.95"/><rect class="cls-7" x="2196.45" y="1396.75" width="2.19" height="17.95"/><rect class="cls-7" x="2182.07" y="1396.75" width="2.19" height="17.95"/><rect class="cls-7" x="2160.03" y="1396.75" width="2.18" height="17.95"/><rect class="cls-7" x="2139.39" y="1396.75" width="2.18" height="17.95"/><rect class="cls-7" x="2120.96" y="1396.75" width="2.18" height="17.95"/><rect class="cls-7" x="2233.36" y="1396.75" width="2.18" height="17.95"/><rect class="cls-7" x="2238.01" y="1396.75" width="2.19" height="17.95"/><rect class="cls-7" x="2242.5" y="1396.75" width="2.19" height="17.95"/><path class="cls-7" d="M2248.07,1396.81v17.82a5.55,5.55,0,0,1-.82.07h-1.37v-18h1.37A5.55,5.55,0,0,1,2248.07,1396.81Z"/><path class="cls-7" d="M2251.1,1398.47V1413a4.61,4.61,0,0,1-2.18,1.46V1397A4.61,4.61,0,0,1,2251.1,1398.47Z"/><path class="cls-6" d="M2256.5,1382.7v10.14a3.45,3.45,0,0,1-.79,2.18,5,5,0,0,1-3,1.66,5.44,5.44,0,0,1-.82.07H2059.57c-2.48,0-4.52-1.66-4.65-3.71V1382.5a4.29,4.29,0,0,1,4.1-3.68,4.93,4.93,0,0,1,.55,0h192.28a5.44,5.44,0,0,1,.82.07,5,5,0,0,1,3,1.66A3.45,3.45,0,0,1,2256.5,1382.7Z"/><path class="cls-7" d="M2162.09,1396.75h-103a4.08,4.08,0,0,1-4.15-3.71V1382.5a4,4,0,0,1,3.66-3.68,3.91,3.91,0,0,1,.49,0h90.36v0A31.48,31.48,0,0,0,2162.09,1396.75Z"/><rect class="cls-7" x="2230.92" y="1378.79" width="2.19" height="17.95"/><rect class="cls-7" x="2223.52" y="1378.79" width="2.19" height="17.95"/><rect class="cls-7" x="2214.65" y="1378.79" width="2.19" height="17.95"/><rect class="cls-7" x="2201.06" y="1378.79" width="2.19" height="17.95"/><rect class="cls-7" x="2186.68" y="1378.79" width="2.19" height="17.95"/><rect class="cls-7" x="2164.63" y="1378.79" width="2.19" height="17.95"/><rect class="cls-7" x="2144" y="1378.79" width="2.18" height="17.95"/><rect class="cls-7" x="2125.57" y="1378.79" width="2.18" height="17.95"/><rect class="cls-7" x="2237.96" y="1378.79" width="2.19" height="17.95"/><rect class="cls-7" x="2242.62" y="1378.79" width="2.19" height="17.95"/><rect class="cls-7" x="2247.11" y="1378.79" width="2.19" height="17.95"/><path class="cls-7" d="M2252.67,1378.86v17.82a5.46,5.46,0,0,1-.82.06h-1.36v-18h1.36A5.44,5.44,0,0,1,2252.67,1378.86Z"/><path class="cls-7" d="M2255.71,1380.52V1395a4.59,4.59,0,0,1-2.19,1.46v-17.42A4.59,4.59,0,0,1,2255.71,1380.52Z"/><path class="cls-6" d="M2242.37,1364.78v10.14a3.45,3.45,0,0,1-.8,2.18,4.68,4.68,0,0,1-2.18,1.46,4.78,4.78,0,0,1-.85.2l-.27,0-.16,0H2045.43c-2.47,0-4.52-1.65-4.64-3.7a1.41,1.41,0,0,1,0-.2v-10.14a1.27,1.27,0,0,1,0-.2,1,1,0,0,1,0-.17,4.23,4.23,0,0,1,3.49-3.42l.14,0a4.71,4.71,0,0,1,1-.1h192.29l.41,0h.19l.22,0a4.8,4.8,0,0,1,.85.21,4.61,4.61,0,0,1,2.18,1.46A3.4,3.4,0,0,1,2242.37,1364.78Z"/><path class="cls-7" d="M2148,1378.82h-103a4.06,4.06,0,0,1-4.15-3.7,1.41,1.41,0,0,1,0-.2v-10.14a1.27,1.27,0,0,1,0-.2,1,1,0,0,1,0-.17A4,4,0,0,1,2044,1361l.18,0a4.44,4.44,0,0,1,.74-.06h90.36l0,.13a31.48,31.48,0,0,0,12.58,17.79Z"/><rect class="cls-7" x="2216.79" y="1360.87" width="2.19" height="17.95"/><rect class="cls-7" x="2209.39" y="1360.87" width="2.18" height="17.95"/><rect class="cls-7" x="2200.52" y="1360.87" width="2.19" height="17.95"/><rect class="cls-7" x="2186.92" y="1360.87" width="2.19" height="17.95"/><rect class="cls-7" x="2172.54" y="1360.87" width="2.19" height="17.95"/><rect class="cls-7" x="2150.5" y="1360.87" width="2.19" height="17.95"/><rect class="cls-7" x="2129.86" y="1360.87" width="2.19" height="17.95"/><rect class="cls-7" x="2111.43" y="1360.87" width="2.19" height="17.95"/><rect class="cls-7" x="2223.83" y="1360.87" width="2.19" height="17.95"/><rect class="cls-7" x="2228.48" y="1360.87" width="2.19" height="17.95"/><rect class="cls-7" x="2232.97" y="1360.87" width="2.19" height="17.95"/><path class="cls-7" d="M2238.54,1360.93v17.83a5.55,5.55,0,0,1-.82.06h-1.37v-18h1.37A5.55,5.55,0,0,1,2238.54,1360.93Z"/><path class="cls-7" d="M2241.57,1362.6v14.5a4.68,4.68,0,0,1-2.18,1.46v-17.42A4.54,4.54,0,0,1,2241.57,1362.6Z"/><path class="cls-6" d="M2242,1347v10.13a3.45,3.45,0,0,1-.79,2.18,4.61,4.61,0,0,1-2.19,1.47,4.54,4.54,0,0,1-.66.16h0l-.19,0a5.46,5.46,0,0,1-.82.06H2045a5.88,5.88,0,0,1-.6,0l-.23,0a4.23,4.23,0,0,1-3.82-3.64v-10.54c.13-2,2.17-3.7,4.65-3.7h192.81l.17,0,.12,0a4.59,4.59,0,0,1,.85.2l.13,0,.11.05.24.09.25.12.22.12.24.15.18.12h0l.12.09c.11.09.23.19.33.29l.1.09.09.1.17.19A3.5,3.5,0,0,1,2242,1347Z"/><path class="cls-7" d="M2147.54,1361H2044.29l-.27,0a4,4,0,0,1-3.64-3.68v-10.54a4.07,4.07,0,0,1,4.15-3.7h90.36c0,.15.08.29.13.44a31.39,31.39,0,0,0,12.34,17.38Z"/><rect class="cls-7" x="2216.38" y="1343.05" width="2.18" height="17.95"/><rect class="cls-7" x="2208.98" y="1343.05" width="2.19" height="17.95"/><rect class="cls-7" x="2200.11" y="1343.05" width="2.19" height="17.95"/><rect class="cls-7" x="2186.52" y="1343.05" width="2.18" height="17.95"/><rect class="cls-7" x="2172.14" y="1343.05" width="2.19" height="17.95"/><rect class="cls-7" x="2150.09" y="1343.05" width="2.19" height="17.95"/><rect class="cls-7" x="2129.46" y="1343.05" width="2.18" height="17.95"/><rect class="cls-7" x="2111.03" y="1343.05" width="2.19" height="17.95"/><rect class="cls-7" x="2223.42" y="1343.05" width="2.19" height="17.95"/><rect class="cls-7" x="2228.07" y="1343.05" width="2.19" height="17.95"/><rect class="cls-7" x="2232.57" y="1343.05" width="2.19" height="17.95"/><path class="cls-7" d="M2238.13,1343.11v17.83a5.46,5.46,0,0,1-.82.06H2236v-18h1.36A5.46,5.46,0,0,1,2238.13,1343.11Z"/><path class="cls-7" d="M2241.17,1344.77v14.5a4.61,4.61,0,0,1-2.19,1.47v-17.43A4.67,4.67,0,0,1,2241.17,1344.77Z"/><path class="cls-6" d="M2251.9,1329.45v10.13a3.45,3.45,0,0,1-.8,2.19,4.68,4.68,0,0,1-2.18,1.46,4.78,4.78,0,0,1-.85.2,5.55,5.55,0,0,1-.82.06H2055a5.35,5.35,0,0,1-2.14-.44,4,4,0,0,1-2.49-3.09c0-.06,0-.12,0-.17a1.48,1.48,0,0,1,0-.21v-10.13a1.27,1.27,0,0,1,0-.2c.12-2.06,2.17-3.71,4.64-3.71h192.29a5.55,5.55,0,0,1,.82.06,5.85,5.85,0,0,1,.85.2,4.63,4.63,0,0,1,2.18,1.47A3.4,3.4,0,0,1,2251.9,1329.45Z"/><path class="cls-7" d="M2157.48,1343.49h-103a4.39,4.39,0,0,1-1.91-.44,4,4,0,0,1-2.22-3.09c0-.06,0-.12,0-.17a1.48,1.48,0,0,1,0-.21v-10.13a1.27,1.27,0,0,1,0-.2,4.06,4.06,0,0,1,4.14-3.71h90.37a31.45,31.45,0,0,0,12,17.51C2157.05,1343.2,2157.26,1343.34,2157.48,1343.49Z"/><rect class="cls-7" x="2226.32" y="1325.54" width="2.19" height="17.95"/><rect class="cls-7" x="2218.92" y="1325.54" width="2.19" height="17.95"/><rect class="cls-7" x="2210.05" y="1325.54" width="2.19" height="17.95"/><rect class="cls-7" x="2196.45" y="1325.54" width="2.19" height="17.95"/><rect class="cls-7" x="2182.07" y="1325.54" width="2.19" height="17.95"/><rect class="cls-7" x="2160.03" y="1325.54" width="2.18" height="17.95"/><rect class="cls-7" x="2139.39" y="1325.54" width="2.18" height="17.95"/><rect class="cls-7" x="2120.96" y="1325.54" width="2.18" height="17.95"/><rect class="cls-7" x="2233.36" y="1325.54" width="2.18" height="17.95"/><rect class="cls-7" x="2238.01" y="1325.54" width="2.19" height="17.95"/><rect class="cls-7" x="2242.5" y="1325.54" width="2.19" height="17.95"/><path class="cls-7" d="M2248.07,1325.6v17.83a5.55,5.55,0,0,1-.82.06h-1.37v-18h1.37A5.55,5.55,0,0,1,2248.07,1325.6Z"/><path class="cls-7" d="M2251.1,1327.27v14.5a4.68,4.68,0,0,1-2.18,1.46V1325.8A4.63,4.63,0,0,1,2251.1,1327.27Z"/><path class="cls-6" d="M2267.61,1311.5v10.13a3.45,3.45,0,0,1-.79,2.18,4.66,4.66,0,0,1-2.19,1.47,5.85,5.85,0,0,1-.85.2,5.55,5.55,0,0,1-.82.06H2070.68c-2.48,0-4.52-1.65-4.65-3.71V1311.3a4.28,4.28,0,0,1,4.1-3.68,4.93,4.93,0,0,1,.55,0H2263a5.55,5.55,0,0,1,.82.06,5.85,5.85,0,0,1,.85.2,4.66,4.66,0,0,1,2.19,1.47A3.45,3.45,0,0,1,2267.61,1311.5Z"/><path class="cls-7" d="M2173.19,1325.54h-103a4.07,4.07,0,0,1-4.15-3.71V1311.3a4,4,0,0,1,3.66-3.68,3.91,3.91,0,0,1,.49,0h90.36v0A31.48,31.48,0,0,0,2173.19,1325.54Z"/><rect class="cls-7" x="2242.03" y="1307.59" width="2.19" height="17.95"/><rect class="cls-7" x="2234.63" y="1307.59" width="2.19" height="17.95"/><rect class="cls-7" x="2225.76" y="1307.59" width="2.19" height="17.95"/><rect class="cls-7" x="2212.17" y="1307.59" width="2.18" height="17.95"/><rect class="cls-7" x="2197.79" y="1307.59" width="2.19" height="17.95"/><rect class="cls-7" x="2175.74" y="1307.59" width="2.19" height="17.95"/><rect class="cls-7" x="2155.1" y="1307.59" width="2.19" height="17.95"/><rect class="cls-7" x="2136.67" y="1307.59" width="2.18" height="17.95"/><rect class="cls-7" x="2249.07" y="1307.59" width="2.18" height="17.95"/><rect class="cls-7" x="2253.72" y="1307.59" width="2.18" height="17.95"/><rect class="cls-7" x="2258.22" y="1307.59" width="2.18" height="17.95"/><path class="cls-7" d="M2263.78,1307.65v17.83a5.55,5.55,0,0,1-.82.06h-1.36v-18H2263A5.55,5.55,0,0,1,2263.78,1307.65Z"/><path class="cls-7" d="M2266.82,1309.31v14.5a4.66,4.66,0,0,1-2.19,1.47v-17.43A4.72,4.72,0,0,1,2266.82,1309.31Z"/><path class="cls-6" d="M2242.37,1293.57v10.14a3.4,3.4,0,0,1-.8,2.18,4.61,4.61,0,0,1-2.18,1.46,4.78,4.78,0,0,1-.85.2l-.27,0-.22,0H2045.43c-2.47,0-4.52-1.65-4.64-3.71a1.34,1.34,0,0,1,0-.2v-10.14a1.41,1.41,0,0,1,0-.2c.12-2,2.17-3.7,4.64-3.7H2238a5.42,5.42,0,0,1,.58.06,4.78,4.78,0,0,1,.85.2l.4.15.24.11h0l.23.13,0,0,.21.12a5.48,5.48,0,0,1,.46.34l.13.12,0,0,.08.07,0,0a1.85,1.85,0,0,1,.14.14l.18.21A3.45,3.45,0,0,1,2242.37,1293.57Z"/><path class="cls-7" d="M2148,1307.62h-103a4.06,4.06,0,0,1-4.15-3.71,1.34,1.34,0,0,1,0-.2v-10.14a1.41,1.41,0,0,1,0-.2,4.06,4.06,0,0,1,4.15-3.7h90.36a3.71,3.71,0,0,0,.12.41,31.37,31.37,0,0,0,12.49,17.51Z"/><rect class="cls-7" x="2216.79" y="1289.67" width="2.19" height="17.95"/><rect class="cls-7" x="2209.39" y="1289.67" width="2.18" height="17.95"/><rect class="cls-7" x="2200.52" y="1289.67" width="2.19" height="17.95"/><rect class="cls-7" x="2186.92" y="1289.67" width="2.19" height="17.95"/><rect class="cls-7" x="2172.54" y="1289.67" width="2.19" height="17.95"/><rect class="cls-7" x="2150.5" y="1289.67" width="2.19" height="17.95"/><rect class="cls-7" x="2129.86" y="1289.67" width="2.19" height="17.95"/><rect class="cls-7" x="2111.43" y="1289.67" width="2.19" height="17.95"/><rect class="cls-7" x="2223.83" y="1289.67" width="2.19" height="17.95"/><rect class="cls-7" x="2228.48" y="1289.67" width="2.19" height="17.95"/><rect class="cls-7" x="2232.97" y="1289.67" width="2.19" height="17.95"/><path class="cls-7" d="M2238.54,1289.73v17.82a4.47,4.47,0,0,1-.82.07h-1.37v-17.95h1.37A5.55,5.55,0,0,1,2238.54,1289.73Z"/><path class="cls-7" d="M2241.57,1291.39v14.5a4.61,4.61,0,0,1-2.18,1.46v-17.42A4.68,4.68,0,0,1,2241.57,1291.39Z"/><path class="cls-6" d="M2256.5,1276v10.14a3.49,3.49,0,0,1-.79,2.18,4.67,4.67,0,0,1-2.19,1.46,4.59,4.59,0,0,1-.85.2,5.46,5.46,0,0,1-.82.06H2059.57a5.47,5.47,0,0,1-2.08-.41,4,4,0,0,1-2.55-3.13c0-.06,0-.11,0-.16v-10.54a4.28,4.28,0,0,1,4.1-3.68,4.93,4.93,0,0,1,.55,0h192.28a5.46,5.46,0,0,1,.82.06,5.56,5.56,0,0,1,.85.2,4.61,4.61,0,0,1,2.19,1.47A3.45,3.45,0,0,1,2256.5,1276Z"/><path class="cls-7" d="M2162.09,1290.08h-103a4.4,4.4,0,0,1-1.85-.41,3.9,3.9,0,0,1-2.28-3.13c0-.06,0-.11,0-.16v-10.54a4,4,0,0,1,3.66-3.68,3.91,3.91,0,0,1,.49,0h90.36v0a31.49,31.49,0,0,0,12,17.51C2161.69,1289.81,2161.88,1290,2162.09,1290.08Z"/><rect class="cls-7" x="2230.92" y="1272.13" width="2.19" height="17.95"/><rect class="cls-7" x="2223.52" y="1272.13" width="2.19" height="17.95"/><rect class="cls-7" x="2214.65" y="1272.13" width="2.19" height="17.95"/><rect class="cls-7" x="2201.06" y="1272.13" width="2.19" height="17.95"/><rect class="cls-7" x="2186.68" y="1272.13" width="2.19" height="17.95"/><rect class="cls-7" x="2164.63" y="1272.13" width="2.19" height="17.95"/><rect class="cls-7" x="2144" y="1272.13" width="2.18" height="17.95"/><rect class="cls-7" x="2125.57" y="1272.13" width="2.18" height="17.95"/><rect class="cls-7" x="2237.96" y="1272.13" width="2.19" height="17.95"/><rect class="cls-7" x="2242.62" y="1272.13" width="2.19" height="17.95"/><rect class="cls-7" x="2247.11" y="1272.13" width="2.19" height="17.95"/><path class="cls-7" d="M2252.67,1272.19V1290a5.46,5.46,0,0,1-.82.06h-1.36v-17.95h1.36A5.46,5.46,0,0,1,2252.67,1272.19Z"/><path class="cls-7" d="M2255.71,1273.86v14.5a4.67,4.67,0,0,1-2.19,1.46v-17.43A4.61,4.61,0,0,1,2255.71,1273.86Z"/><path class="cls-6" d="M2262.52,1258.12v10.13a3.45,3.45,0,0,1-.79,2.18,4.66,4.66,0,0,1-2.19,1.47,5.85,5.85,0,0,1-.85.2l-.27,0H2065.59c-2.48,0-4.52-1.65-4.65-3.71v-10.54c.13-2.05,2.17-3.7,4.65-3.7h192.28a5.55,5.55,0,0,1,.82.06,4.78,4.78,0,0,1,.85.2,4.72,4.72,0,0,1,2.19,1.46A3.5,3.5,0,0,1,2262.52,1258.12Z"/><path class="cls-7" d="M2168.1,1272.16h-103a4.07,4.07,0,0,1-4.15-3.71v-10.54a4.07,4.07,0,0,1,4.15-3.7h90.36a31.49,31.49,0,0,0,12.61,17.92Z"/><rect class="cls-7" x="2236.94" y="1254.21" width="2.18" height="17.95"/><rect class="cls-7" x="2229.54" y="1254.21" width="2.18" height="17.95"/><rect class="cls-7" x="2220.67" y="1254.21" width="2.18" height="17.95"/><rect class="cls-7" x="2207.07" y="1254.21" width="2.19" height="17.95"/><rect class="cls-7" x="2192.7" y="1254.21" width="2.19" height="17.95"/><rect class="cls-7" x="2170.65" y="1254.21" width="2.19" height="17.95"/><rect class="cls-7" x="2150.01" y="1254.21" width="2.19" height="17.95"/><rect class="cls-7" x="2131.58" y="1254.21" width="2.19" height="17.95"/><rect class="cls-7" x="2243.98" y="1254.21" width="2.19" height="17.95"/><rect class="cls-7" x="2248.63" y="1254.21" width="2.18" height="17.95"/><rect class="cls-7" x="2253.13" y="1254.21" width="2.19" height="17.95"/><path class="cls-7" d="M2258.69,1254.27v17.83a5.55,5.55,0,0,1-.82.06h-1.37v-18h1.37A5.55,5.55,0,0,1,2258.69,1254.27Z"/><path class="cls-7" d="M2261.73,1255.93v14.5a4.66,4.66,0,0,1-2.19,1.47v-17.43A4.72,4.72,0,0,1,2261.73,1255.93Z"/><path class="cls-6" d="M2016.57,1434.83V1446a3.82,3.82,0,0,1-.87,2.4,5.2,5.2,0,0,1-2.41,1.61,4.94,4.94,0,0,1-.94.22,5.29,5.29,0,0,1-.9.07h-212c-2.73,0-5-1.82-5.12-4.08,0-.08,0-.15,0-.22v-11.18c0-.07,0-.15,0-.22.14-2.27,2.39-4.08,5.12-4.08h212a6.58,6.58,0,0,1,.9.06,5.86,5.86,0,0,1,.94.23,5.12,5.12,0,0,1,2.41,1.61A3.82,3.82,0,0,1,2016.57,1434.83Z"/><path class="cls-7" d="M1912.5,1450.31H1799a4.48,4.48,0,0,1-4.57-4.08c0-.08,0-.15,0-.22v-11.18c0-.07,0-.15,0-.22a4.47,4.47,0,0,1,4.57-4.08h99.6A34.67,34.67,0,0,0,1912.5,1450.31Z"/><rect class="cls-7" x="1988.38" y="1430.53" width="2.41" height="19.79"/><rect class="cls-7" x="1980.22" y="1430.53" width="2.41" height="19.79"/><rect class="cls-7" x="1970.44" y="1430.53" width="2.41" height="19.79"/><rect class="cls-7" x="1955.46" y="1430.53" width="2.41" height="19.79"/><rect class="cls-7" x="1939.61" y="1430.53" width="2.41" height="19.79"/><rect class="cls-7" x="1915.31" y="1430.53" width="2.41" height="19.79"/><rect class="cls-7" x="1892.56" y="1430.53" width="2.41" height="19.79"/><rect class="cls-7" x="1872.25" y="1430.53" width="2.41" height="19.79"/><rect class="cls-7" x="1996.14" y="1430.53" width="2.41" height="19.79"/><rect class="cls-7" x="2001.26" y="1430.53" width="2.41" height="19.79"/><rect class="cls-7" x="2006.22" y="1430.53" width="2.41" height="19.79"/><path class="cls-7" d="M2012.35,1430.59v19.65a5.29,5.29,0,0,1-.9.07h-1.51v-19.78h1.51A6.58,6.58,0,0,1,2012.35,1430.59Z"/><path class="cls-7" d="M2015.7,1432.43v16a5.2,5.2,0,0,1-2.41,1.61v-19.2A5.12,5.12,0,0,1,2015.7,1432.43Z"/><path class="cls-6" d="M1993.91,1415.05v11.17a3.8,3.8,0,0,1-.87,2.4,5.14,5.14,0,0,1-2.41,1.62,5.84,5.84,0,0,1-.94.22,6.56,6.56,0,0,1-.9.07h-212c-2.73,0-5-1.82-5.12-4.09,0-.07,0-.15,0-.22v-11.17c0-.08,0-.15,0-.23.14-2.26,2.39-4.08,5.12-4.08h212.35l.18,0,.18,0,.14,0a5.84,5.84,0,0,1,.94.22l.13,0,.13,0,.26.11.15.07.13.06.24.13.26.16.2.14h0l.13.1a3.87,3.87,0,0,1,.37.32l.11.1.1.1.19.22A3.85,3.85,0,0,1,1993.91,1415.05Z"/><path class="cls-7" d="M1889.84,1430.53H1776.29a4.48,4.48,0,0,1-4.57-4.09c0-.07,0-.15,0-.22v-11.17c0-.08,0-.15,0-.23a4.48,4.48,0,0,1,4.57-4.08h99.6c0,.16.09.32.14.49A34.64,34.64,0,0,0,1889.84,1430.53Z"/><rect class="cls-7" x="1965.71" y="1410.74" width="2.41" height="19.79"/><rect class="cls-7" x="1957.56" y="1410.74" width="2.41" height="19.79"/><rect class="cls-7" x="1947.78" y="1410.74" width="2.41" height="19.79"/><rect class="cls-7" x="1932.79" y="1410.74" width="2.41" height="19.79"/><rect class="cls-7" x="1916.95" y="1410.74" width="2.41" height="19.79"/><rect class="cls-7" x="1892.65" y="1410.74" width="2.41" height="19.79"/><rect class="cls-7" x="1869.9" y="1410.74" width="2.41" height="19.79"/><rect class="cls-7" x="1849.59" y="1410.74" width="2.41" height="19.79"/><rect class="cls-7" x="1973.48" y="1410.74" width="2.41" height="19.79"/><rect class="cls-7" x="1978.6" y="1410.74" width="2.41" height="19.79"/><rect class="cls-7" x="1983.56" y="1410.74" width="2.41" height="19.79"/><path class="cls-7" d="M1989.69,1410.81v19.65a6.69,6.69,0,0,1-.9.07h-1.51v-19.79h1.51A5.37,5.37,0,0,1,1989.69,1410.81Z"/><path class="cls-7" d="M1993,1412.64v16a5.05,5.05,0,0,1-2.41,1.61V1411A5.2,5.2,0,0,1,1993,1412.64Z"/><path class="cls-6" d="M2004.87,1395.75v11.17a3.86,3.86,0,0,1-.88,2.41,5.2,5.2,0,0,1-2.41,1.61,5.84,5.84,0,0,1-.94.22,6.56,6.56,0,0,1-.9.07h-212a5.89,5.89,0,0,1-2.36-.49,4.4,4.4,0,0,1-2.74-3.4,1.36,1.36,0,0,1,0-.2c0-.07,0-.14,0-.22v-11.17c0-.08,0-.15,0-.22.14-2.27,2.39-4.09,5.12-4.09h212a6.56,6.56,0,0,1,.9.07,5.84,5.84,0,0,1,.94.22,5.2,5.2,0,0,1,2.41,1.61A3.86,3.86,0,0,1,2004.87,1395.75Z"/><path class="cls-7" d="M1900.79,1411.23H1787.24a4.78,4.78,0,0,1-2.11-.49,4.33,4.33,0,0,1-2.44-3.4,1.36,1.36,0,0,1,0-.2c0-.07,0-.14,0-.22v-11.17c0-.08,0-.15,0-.22a4.48,4.48,0,0,1,4.57-4.09h99.6a34.75,34.75,0,0,0,13.25,19.3Z"/><rect class="cls-7" x="1976.67" y="1391.44" width="2.41" height="19.79"/><rect class="cls-7" x="1968.51" y="1391.44" width="2.41" height="19.79"/><rect class="cls-7" x="1958.73" y="1391.44" width="2.41" height="19.79"/><rect class="cls-7" x="1943.75" y="1391.44" width="2.41" height="19.79"/><rect class="cls-7" x="1927.9" y="1391.44" width="2.41" height="19.79"/><rect class="cls-7" x="1903.6" y="1391.44" width="2.41" height="19.79"/><rect class="cls-7" x="1880.85" y="1391.44" width="2.41" height="19.79"/><rect class="cls-7" x="1860.54" y="1391.44" width="2.41" height="19.79"/><rect class="cls-7" x="1984.43" y="1391.44" width="2.41" height="19.79"/><rect class="cls-7" x="1989.56" y="1391.44" width="2.41" height="19.79"/><rect class="cls-7" x="1994.51" y="1391.44" width="2.41" height="19.79"/><path class="cls-7" d="M2000.64,1391.51v19.65a6.56,6.56,0,0,1-.9.07h-1.51v-19.79h1.51A5.29,5.29,0,0,1,2000.64,1391.51Z"/><path class="cls-7" d="M2004,1393.34v16a5.2,5.2,0,0,1-2.41,1.61v-19.21A5.2,5.2,0,0,1,2004,1393.34Z"/><path class="cls-6" d="M2009.94,1376v11.18a3.8,3.8,0,0,1-.88,2.4,5.12,5.12,0,0,1-2.4,1.61,5.84,5.84,0,0,1-.94.22,5.49,5.49,0,0,1-.91.07H1792.87c-2.73,0-5-1.82-5.12-4.08a1.7,1.7,0,0,1,0-.22V1376a1.62,1.62,0,0,1,0-.22c.12-2.1,2.06-3.81,4.51-4a4.08,4.08,0,0,1,.61,0h211.94a6.84,6.84,0,0,1,.91.07,5.84,5.84,0,0,1,.94.22,5.06,5.06,0,0,1,2.4,1.62A3.77,3.77,0,0,1,2009.94,1376Z"/><path class="cls-7" d="M1905.87,1391.44H1792.32a4.48,4.48,0,0,1-4.57-4.08,1.7,1.7,0,0,1,0-.22V1376a1.62,1.62,0,0,1,0-.22,4.43,4.43,0,0,1,4-4,3.12,3.12,0,0,1,.54,0h99.6v0A34.66,34.66,0,0,0,1905.87,1391.44Z"/><rect class="cls-7" x="1981.74" y="1371.65" width="2.41" height="19.79"/><rect class="cls-7" x="1973.59" y="1371.65" width="2.41" height="19.79"/><rect class="cls-7" x="1963.81" y="1371.65" width="2.41" height="19.79"/><rect class="cls-7" x="1948.82" y="1371.65" width="2.41" height="19.79"/><rect class="cls-7" x="1932.97" y="1371.65" width="2.41" height="19.79"/><rect class="cls-7" x="1908.68" y="1371.65" width="2.41" height="19.79"/><rect class="cls-7" x="1885.93" y="1371.65" width="2.41" height="19.79"/><rect class="cls-7" x="1865.61" y="1371.65" width="2.41" height="19.79"/><rect class="cls-7" x="1989.5" y="1371.65" width="2.41" height="19.79"/><rect class="cls-7" x="1994.63" y="1371.65" width="2.41" height="19.79"/><rect class="cls-7" x="1999.58" y="1371.65" width="2.41" height="19.79"/><path class="cls-7" d="M2005.72,1371.72v19.65a5.49,5.49,0,0,1-.91.07h-1.5v-19.79h1.5A6.84,6.84,0,0,1,2005.72,1371.72Z"/><path class="cls-7" d="M2009.06,1373.56v16a5.12,5.12,0,0,1-2.4,1.61v-19.21A5.06,5.06,0,0,1,2009.06,1373.56Z"/><path class="cls-6" d="M1994.36,1356.21v11.17a3.75,3.75,0,0,1-.88,2.4,5,5,0,0,1-2.41,1.61,4.78,4.78,0,0,1-.94.23,2.58,2.58,0,0,1-.29,0l-.17,0H1777.29c-2.74,0-5-1.82-5.13-4.09V1356c0-.06,0-.12,0-.18A4.65,4.65,0,0,1,1776,1352l.16,0a5.8,5.8,0,0,1,1.11-.1h211.94l.46,0h.21l.23,0a5.6,5.6,0,0,1,.94.22,5.1,5.1,0,0,1,2.41,1.61A3.78,3.78,0,0,1,1994.36,1356.21Z"/><path class="cls-7" d="M1890.28,1371.69H1776.74a4.49,4.49,0,0,1-4.58-4.09V1356c0-.06,0-.12,0-.18a4.41,4.41,0,0,1,3.55-3.79l.19,0a4.47,4.47,0,0,1,.82-.07h99.6s0,.09,0,.14a34.64,34.64,0,0,0,13.86,19.61Z"/><rect class="cls-7" x="1966.16" y="1351.9" width="2.41" height="19.79"/><rect class="cls-7" x="1958.01" y="1351.9" width="2.41" height="19.79"/><rect class="cls-7" x="1948.23" y="1351.9" width="2.41" height="19.79"/><rect class="cls-7" x="1933.24" y="1351.9" width="2.41" height="19.79"/><rect class="cls-7" x="1917.39" y="1351.9" width="2.41" height="19.79"/><rect class="cls-7" x="1893.09" y="1351.9" width="2.41" height="19.79"/><rect class="cls-7" x="1870.34" y="1351.9" width="2.41" height="19.79"/><rect class="cls-7" x="1850.03" y="1351.9" width="2.41" height="19.79"/><rect class="cls-7" x="1973.92" y="1351.9" width="2.41" height="19.79"/><rect class="cls-7" x="1979.05" y="1351.9" width="2.41" height="19.79"/><rect class="cls-7" x="1984" y="1351.9" width="2.41" height="19.79"/><path class="cls-7" d="M1990.13,1352v19.65a6.58,6.58,0,0,1-.9.06h-1.5V1351.9h1.5A5.29,5.29,0,0,1,1990.13,1352Z"/><path class="cls-7" d="M1993.48,1353.8v16a5,5,0,0,1-2.41,1.61v-19.2A5.1,5.1,0,0,1,1993.48,1353.8Z"/><path class="cls-6" d="M1993.91,1336.56v11.17a3.85,3.85,0,0,1-.87,2.41,5.2,5.2,0,0,1-2.41,1.61,4.58,4.58,0,0,1-.73.18h0l-.2,0a5.29,5.29,0,0,1-.9.07h-212a4.78,4.78,0,0,1-.66,0l-.26,0a4.66,4.66,0,0,1-4.2-4c0-.07,0-.14,0-.22v-11.17c0-.07,0-.15,0-.22.14-2.27,2.39-4.09,5.12-4.09h212l.4,0h.18l.18,0,.14,0a5.84,5.84,0,0,1,.94.22l.13,0,.13.05.26.1.28.13.24.13.26.17.2.13h0l.13.1a3.87,3.87,0,0,1,.37.32l.11.1.1.11c.06.07.13.14.19.22A3.8,3.8,0,0,1,1993.91,1336.56Z"/><path class="cls-7" d="M1889.84,1352H1776l-.29,0a4.44,4.44,0,0,1-4-4.06c0-.07,0-.14,0-.22v-11.17c0-.07,0-.15,0-.22a4.48,4.48,0,0,1,4.57-4.09h99.6c0,.17.09.33.14.49a34.67,34.67,0,0,0,13.6,19.16Z"/><rect class="cls-7" x="1965.71" y="1332.25" width="2.41" height="19.79"/><rect class="cls-7" x="1957.56" y="1332.25" width="2.41" height="19.79"/><rect class="cls-7" x="1947.78" y="1332.25" width="2.41" height="19.79"/><rect class="cls-7" x="1932.79" y="1332.25" width="2.41" height="19.79"/><rect class="cls-7" x="1916.95" y="1332.25" width="2.41" height="19.79"/><rect class="cls-7" x="1892.65" y="1332.25" width="2.41" height="19.79"/><rect class="cls-7" x="1869.9" y="1332.25" width="2.41" height="19.79"/><rect class="cls-7" x="1849.59" y="1332.25" width="2.41" height="19.79"/><rect class="cls-7" x="1973.48" y="1332.25" width="2.41" height="19.79"/><rect class="cls-7" x="1978.6" y="1332.25" width="2.41" height="19.79"/><rect class="cls-7" x="1983.56" y="1332.25" width="2.41" height="19.79"/><path class="cls-7" d="M1989.69,1332.32V1352a5.37,5.37,0,0,1-.9.07h-1.51v-19.79h1.51A6.69,6.69,0,0,1,1989.69,1332.32Z"/><path class="cls-7" d="M1993,1334.16v16a5.2,5.2,0,0,1-2.41,1.61v-19.21A5.14,5.14,0,0,1,1993,1334.16Z"/><path class="cls-6" d="M2004.87,1317.26v11.17a3.84,3.84,0,0,1-.88,2.41,5.2,5.2,0,0,1-2.41,1.61,4.94,4.94,0,0,1-.94.22,5.29,5.29,0,0,1-.9.07h-212a5.89,5.89,0,0,1-2.36-.49,4.39,4.39,0,0,1-2.74-3.4,1.23,1.23,0,0,1,0-.19c0-.08,0-.15,0-.23v-11.17c0-.07,0-.15,0-.22.14-2.27,2.39-4.09,5.12-4.09h212a6.56,6.56,0,0,1,.9.07,5.86,5.86,0,0,1,.94.23,5.05,5.05,0,0,1,2.41,1.61A3.83,3.83,0,0,1,2004.87,1317.26Z"/><path class="cls-7" d="M1900.79,1332.74H1787.24a4.78,4.78,0,0,1-2.11-.49,4.31,4.31,0,0,1-2.44-3.4,1.23,1.23,0,0,1,0-.19c0-.08,0-.15,0-.23v-11.17c0-.07,0-.15,0-.22a4.48,4.48,0,0,1,4.57-4.09h99.6a34.72,34.72,0,0,0,13.25,19.3Z"/><rect class="cls-7" x="1976.67" y="1312.96" width="2.41" height="19.79"/><rect class="cls-7" x="1968.51" y="1312.96" width="2.41" height="19.79"/><rect class="cls-7" x="1958.73" y="1312.96" width="2.41" height="19.79"/><rect class="cls-7" x="1943.75" y="1312.96" width="2.41" height="19.79"/><rect class="cls-7" x="1927.9" y="1312.96" width="2.41" height="19.79"/><rect class="cls-7" x="1903.6" y="1312.96" width="2.41" height="19.79"/><rect class="cls-7" x="1880.85" y="1312.96" width="2.41" height="19.79"/><rect class="cls-7" x="1860.54" y="1312.96" width="2.41" height="19.79"/><rect class="cls-7" x="1984.43" y="1312.96" width="2.41" height="19.79"/><rect class="cls-7" x="1989.56" y="1312.96" width="2.41" height="19.79"/><rect class="cls-7" x="1994.51" y="1312.96" width="2.41" height="19.79"/><path class="cls-7" d="M2000.64,1313v19.65a5.29,5.29,0,0,1-.9.07h-1.51V1313h1.51A6.58,6.58,0,0,1,2000.64,1313Z"/><path class="cls-7" d="M2004,1314.86v16a5.2,5.2,0,0,1-2.41,1.61v-19.2A5.05,5.05,0,0,1,2004,1314.86Z"/><path class="cls-6" d="M2022.18,1297.47v11.18a3.8,3.8,0,0,1-.87,2.4,5.05,5.05,0,0,1-2.41,1.61,5.86,5.86,0,0,1-.94.23,6.58,6.58,0,0,1-.9.06h-212c-2.73,0-5-1.81-5.12-4.08,0-.07,0-.15,0-.22v-11.18c0-.07,0-.14,0-.22.13-2.09,2.06-3.81,4.51-4,.2,0,.41,0,.61,0h212a5.29,5.29,0,0,1,.9.07,5.84,5.84,0,0,1,.94.22,5.2,5.2,0,0,1,2.41,1.61A3.84,3.84,0,0,1,2022.18,1297.47Z"/><path class="cls-7" d="M1918.11,1313H1804.56a4.47,4.47,0,0,1-4.57-4.08c0-.07,0-.15,0-.22v-11.18c0-.07,0-.14,0-.22a4.43,4.43,0,0,1,4-4l.54,0h99.61v0A34.7,34.7,0,0,0,1918.11,1313Z"/><rect class="cls-7" x="1993.99" y="1293.17" width="2.41" height="19.79"/><rect class="cls-7" x="1985.83" y="1293.17" width="2.41" height="19.79"/><rect class="cls-7" x="1976.05" y="1293.17" width="2.41" height="19.79"/><rect class="cls-7" x="1961.07" y="1293.17" width="2.41" height="19.79"/><rect class="cls-7" x="1945.22" y="1293.17" width="2.41" height="19.79"/><rect class="cls-7" x="1920.92" y="1293.17" width="2.41" height="19.79"/><rect class="cls-7" x="1898.17" y="1293.17" width="2.41" height="19.79"/><rect class="cls-7" x="1877.86" y="1293.17" width="2.41" height="19.79"/><rect class="cls-7" x="2001.75" y="1293.17" width="2.41" height="19.79"/><rect class="cls-7" x="2006.88" y="1293.17" width="2.41" height="19.79"/><rect class="cls-7" x="2011.83" y="1293.17" width="2.41" height="19.79"/><path class="cls-7" d="M2018,1293.24v19.65a6.58,6.58,0,0,1-.9.06h-1.51v-19.78h1.51A5.29,5.29,0,0,1,2018,1293.24Z"/><path class="cls-7" d="M2021.31,1295.07v16a5.05,5.05,0,0,1-2.41,1.61v-19.2A5.2,5.2,0,0,1,2021.31,1295.07Z"/><path class="cls-6" d="M1994.36,1277.72v11.17a3.8,3.8,0,0,1-.88,2.41,5.1,5.1,0,0,1-2.41,1.61,5.6,5.6,0,0,1-.94.22l-.29,0-.24,0H1777.29c-2.74,0-5-1.82-5.13-4.08V1277.5c.14-2.27,2.39-4.09,5.13-4.09H1989.5a6.12,6.12,0,0,1,.63.06,5.6,5.6,0,0,1,.94.22,4.7,4.7,0,0,1,.45.17l.26.12h0l.26.14,0,0,.23.14a4.82,4.82,0,0,1,.51.38l.15.12,0,0,.09.08,0,0,.15.15c.07.08.14.15.2.23A3.8,3.8,0,0,1,1994.36,1277.72Z"/><path class="cls-7" d="M1890.28,1293.2H1776.74a4.49,4.49,0,0,1-4.58-4.08V1277.5a4.49,4.49,0,0,1,4.58-4.09h99.6c0,.15.08.31.13.46a34.62,34.62,0,0,0,13.77,19.3Z"/><rect class="cls-7" x="1966.16" y="1273.41" width="2.41" height="19.79"/><rect class="cls-7" x="1958.01" y="1273.41" width="2.41" height="19.79"/><rect class="cls-7" x="1948.23" y="1273.41" width="2.41" height="19.79"/><rect class="cls-7" x="1933.24" y="1273.41" width="2.41" height="19.79"/><rect class="cls-7" x="1917.39" y="1273.41" width="2.41" height="19.79"/><rect class="cls-7" x="1893.09" y="1273.41" width="2.41" height="19.79"/><rect class="cls-7" x="1870.34" y="1273.41" width="2.41" height="19.79"/><rect class="cls-7" x="1850.03" y="1273.41" width="2.41" height="19.79"/><rect class="cls-7" x="1973.92" y="1273.41" width="2.41" height="19.79"/><rect class="cls-7" x="1979.05" y="1273.41" width="2.41" height="19.79"/><rect class="cls-7" x="1984" y="1273.41" width="2.41" height="19.79"/><path class="cls-7" d="M1990.13,1273.48v19.65a5.29,5.29,0,0,1-.9.07h-1.5v-19.79h1.5A6.56,6.56,0,0,1,1990.13,1273.48Z"/><path class="cls-7" d="M1993.48,1275.31v16a5.1,5.1,0,0,1-2.41,1.61V1273.7A5.1,5.1,0,0,1,1993.48,1275.31Z"/><path class="cls-6" d="M2009.94,1258.39v11.17a3.8,3.8,0,0,1-.88,2.41,5.12,5.12,0,0,1-2.4,1.61,5.84,5.84,0,0,1-.94.22,5.49,5.49,0,0,1-.91.07H1792.87a5.75,5.75,0,0,1-2.29-.46,4.4,4.4,0,0,1-2.82-3.45,1,1,0,0,1,0-.17,1.77,1.77,0,0,1,0-.23v-11.17a1.62,1.62,0,0,1,0-.22c.12-2.1,2.06-3.81,4.51-4.05a4.08,4.08,0,0,1,.61,0h211.94a6.84,6.84,0,0,1,.91.07,5.84,5.84,0,0,1,.94.22,5.06,5.06,0,0,1,2.4,1.62A3.75,3.75,0,0,1,2009.94,1258.39Z"/><path class="cls-7" d="M1905.87,1273.87H1792.32a4.63,4.63,0,0,1-2-.46,4.32,4.32,0,0,1-2.52-3.45,1,1,0,0,1,0-.17,1.77,1.77,0,0,1,0-.23v-11.17a1.62,1.62,0,0,1,0-.22,4.43,4.43,0,0,1,4-4.05,3.12,3.12,0,0,1,.54,0h99.6v0a34.72,34.72,0,0,0,13.28,19.29C1905.43,1273.57,1905.64,1273.72,1905.87,1273.87Z"/><rect class="cls-7" x="1981.74" y="1254.08" width="2.41" height="19.79"/><rect class="cls-7" x="1973.59" y="1254.08" width="2.41" height="19.79"/><rect class="cls-7" x="1963.81" y="1254.08" width="2.41" height="19.79"/><rect class="cls-7" x="1948.82" y="1254.08" width="2.41" height="19.79"/><rect class="cls-7" x="1932.97" y="1254.08" width="2.41" height="19.79"/><rect class="cls-7" x="1908.68" y="1254.08" width="2.41" height="19.79"/><rect class="cls-7" x="1885.93" y="1254.08" width="2.41" height="19.79"/><rect class="cls-7" x="1865.61" y="1254.08" width="2.41" height="19.79"/><rect class="cls-7" x="1989.5" y="1254.08" width="2.41" height="19.79"/><rect class="cls-7" x="1994.63" y="1254.08" width="2.41" height="19.79"/><rect class="cls-7" x="1999.58" y="1254.08" width="2.41" height="19.79"/><path class="cls-7" d="M2005.72,1254.15v19.65a5.49,5.49,0,0,1-.91.07h-1.5v-19.79h1.5A6.84,6.84,0,0,1,2005.72,1254.15Z"/><path class="cls-7" d="M2009.06,1256v16a5.12,5.12,0,0,1-2.4,1.61v-19.21A5.12,5.12,0,0,1,2009.06,1256Z"/><path class="cls-6" d="M2016.57,1238.64v11.17a3.82,3.82,0,0,1-.87,2.4,5.05,5.05,0,0,1-2.41,1.61,5,5,0,0,1-.94.23l-.3,0-.16,0H1799.5c-2.73,0-5-1.82-5.12-4.09,0-.07,0-.15,0-.22v-11.17c0-.08,0-.15,0-.23.14-2.26,2.39-4.08,5.12-4.08h212a5.29,5.29,0,0,1,.9.07,4.94,4.94,0,0,1,.94.22,5.2,5.2,0,0,1,2.41,1.61A3.83,3.83,0,0,1,2016.57,1238.64Z"/><path class="cls-7" d="M1912.5,1254.12H1799a4.48,4.48,0,0,1-4.57-4.09c0-.07,0-.15,0-.22v-11.17c0-.08,0-.15,0-.23a4.48,4.48,0,0,1,4.57-4.08h99.6a34.72,34.72,0,0,0,13.9,19.75Z"/><rect class="cls-7" x="1988.38" y="1234.33" width="2.41" height="19.79"/><rect class="cls-7" x="1980.22" y="1234.33" width="2.41" height="19.79"/><rect class="cls-7" x="1970.44" y="1234.33" width="2.41" height="19.79"/><rect class="cls-7" x="1955.46" y="1234.33" width="2.41" height="19.79"/><rect class="cls-7" x="1939.61" y="1234.33" width="2.41" height="19.79"/><rect class="cls-7" x="1915.31" y="1234.33" width="2.41" height="19.79"/><rect class="cls-7" x="1892.56" y="1234.33" width="2.41" height="19.79"/><rect class="cls-7" x="1872.25" y="1234.33" width="2.41" height="19.79"/><rect class="cls-7" x="1996.14" y="1234.33" width="2.41" height="19.79"/><rect class="cls-7" x="2001.27" y="1234.33" width="2.41" height="19.79"/><rect class="cls-7" x="2006.22" y="1234.33" width="2.41" height="19.79"/><path class="cls-7" d="M2012.35,1234.4v19.65a6.58,6.58,0,0,1-.9.06h-1.51v-19.78h1.51A5.29,5.29,0,0,1,2012.35,1234.4Z"/><path class="cls-7" d="M2015.7,1236.23v16a5.05,5.05,0,0,1-2.41,1.61v-19.2A5.2,5.2,0,0,1,2015.7,1236.23Z"/><path class="cls-6" d="M2022.18,1219.12v11.17a3.85,3.85,0,0,1-.87,2.41,5.2,5.2,0,0,1-2.41,1.61,5.84,5.84,0,0,1-.94.22,5.29,5.29,0,0,1-.9.07h-212c-2.73,0-5-1.82-5.12-4.09,0-.07,0-.14,0-.22v-11.17c0-.07,0-.15,0-.22.13-2.1,2.06-3.81,4.51-4.06.2,0,.41,0,.61,0h212a6.56,6.56,0,0,1,.9.07,5.84,5.84,0,0,1,.94.22,5.2,5.2,0,0,1,2.41,1.61A3.85,3.85,0,0,1,2022.18,1219.12Z"/><path class="cls-7" d="M1918.11,1234.6H1804.56a4.48,4.48,0,0,1-4.57-4.09c0-.07,0-.14,0-.22v-11.17c0-.07,0-.15,0-.22a4.44,4.44,0,0,1,4-4.06l.54,0h99.61v0A34.72,34.72,0,0,0,1918.11,1234.6Z"/><rect class="cls-7" x="1993.99" y="1214.81" width="2.41" height="19.79"/><rect class="cls-7" x="1985.83" y="1214.81" width="2.41" height="19.79"/><rect class="cls-7" x="1976.05" y="1214.81" width="2.41" height="19.79"/><rect class="cls-7" x="1961.07" y="1214.81" width="2.41" height="19.79"/><rect class="cls-7" x="1945.22" y="1214.81" width="2.41" height="19.79"/><rect class="cls-7" x="1920.92" y="1214.81" width="2.41" height="19.79"/><rect class="cls-7" x="1898.17" y="1214.81" width="2.41" height="19.79"/><rect class="cls-7" x="1877.86" y="1214.81" width="2.41" height="19.79"/><rect class="cls-7" x="2001.75" y="1214.81" width="2.41" height="19.79"/><rect class="cls-7" x="2006.88" y="1214.81" width="2.41" height="19.79"/><rect class="cls-7" x="2011.83" y="1214.81" width="2.41" height="19.79"/><path class="cls-7" d="M2018,1214.88v19.65a5.29,5.29,0,0,1-.9.07h-1.51v-19.79h1.51A6.56,6.56,0,0,1,2018,1214.88Z"/><path class="cls-7" d="M2021.31,1216.71v16a5.2,5.2,0,0,1-2.41,1.61V1215.1A5.2,5.2,0,0,1,2021.31,1216.71Z"/><path class="cls-6" d="M1994.36,1199.36v11.18a3.77,3.77,0,0,1-.88,2.4,5,5,0,0,1-2.41,1.61,4.77,4.77,0,0,1-.94.22l-.29,0-.24,0H1777.29c-2.74,0-5-1.82-5.13-4.08v-11.62c.14-2.26,2.39-4.08,5.13-4.08H1989.5a4.19,4.19,0,0,1,.63.07,4.77,4.77,0,0,1,.94.22,4.72,4.72,0,0,1,.45.16l.26.12,0,0,.26.13,0,0,.23.14a4.74,4.74,0,0,1,.51.37l.15.13,0,0,.09.08,0,0,.15.16a2.2,2.2,0,0,1,.2.23A3.77,3.77,0,0,1,1994.36,1199.36Z"/><path class="cls-7" d="M1890.28,1214.84H1776.74a4.49,4.49,0,0,1-4.58-4.08v-11.62a4.49,4.49,0,0,1,4.58-4.08h99.6c0,.15.08.3.13.45a34.59,34.59,0,0,0,13.77,19.3Z"/><rect class="cls-7" x="1966.16" y="1195.06" width="2.41" height="19.79"/><rect class="cls-7" x="1958.01" y="1195.06" width="2.41" height="19.79"/><rect class="cls-7" x="1948.23" y="1195.06" width="2.41" height="19.79"/><rect class="cls-7" x="1933.24" y="1195.06" width="2.41" height="19.79"/><rect class="cls-7" x="1917.39" y="1195.06" width="2.41" height="19.79"/><rect class="cls-7" x="1893.09" y="1195.06" width="2.41" height="19.79"/><rect class="cls-7" x="1870.34" y="1195.06" width="2.41" height="19.79"/><rect class="cls-7" x="1850.03" y="1195.06" width="2.41" height="19.79"/><rect class="cls-7" x="1973.92" y="1195.06" width="2.41" height="19.79"/><rect class="cls-7" x="1979.05" y="1195.06" width="2.41" height="19.79"/><rect class="cls-7" x="1984" y="1195.06" width="2.41" height="19.79"/><path class="cls-7" d="M1990.13,1195.13v19.64a5.29,5.29,0,0,1-.9.07h-1.5v-19.78h1.5A5.29,5.29,0,0,1,1990.13,1195.13Z"/><path class="cls-7" d="M1993.48,1197v16a5,5,0,0,1-2.41,1.61v-19.2A5.1,5.1,0,0,1,1993.48,1197Z"/><path class="cls-6" d="M2009.94,1180v11.18a3.77,3.77,0,0,1-.88,2.4,5,5,0,0,1-2.4,1.61,5.86,5.86,0,0,1-.94.23,6.84,6.84,0,0,1-.91.06H1792.87a5.92,5.92,0,0,1-2.29-.45,4.42,4.42,0,0,1-2.82-3.45,1.09,1.09,0,0,1,0-.18,1.62,1.62,0,0,1,0-.22V1180a1.7,1.7,0,0,1,0-.22c.12-2.09,2.06-3.81,4.51-4a6.08,6.08,0,0,1,.61,0h211.94a5.49,5.49,0,0,1,.91.07,4.94,4.94,0,0,1,.94.22,5.12,5.12,0,0,1,2.4,1.61A3.77,3.77,0,0,1,2009.94,1180Z"/><path class="cls-7" d="M1905.87,1195.51H1792.32a4.76,4.76,0,0,1-2-.45,4.33,4.33,0,0,1-2.52-3.45,1.09,1.09,0,0,1,0-.18,1.62,1.62,0,0,1,0-.22V1180a1.7,1.7,0,0,1,0-.22,4.43,4.43,0,0,1,4-4,4.63,4.63,0,0,1,.54,0h99.6v0a34.74,34.74,0,0,0,13.28,19.3Z"/><rect class="cls-7" x="1981.74" y="1175.73" width="2.41" height="19.79"/><rect class="cls-7" x="1973.59" y="1175.73" width="2.41" height="19.79"/><rect class="cls-7" x="1963.81" y="1175.73" width="2.41" height="19.79"/><rect class="cls-7" x="1948.82" y="1175.73" width="2.41" height="19.79"/><rect class="cls-7" x="1932.97" y="1175.73" width="2.41" height="19.79"/><rect class="cls-7" x="1908.68" y="1175.73" width="2.41" height="19.79"/><rect class="cls-7" x="1885.93" y="1175.73" width="2.41" height="19.79"/><rect class="cls-7" x="1865.61" y="1175.73" width="2.41" height="19.79"/><rect class="cls-7" x="1989.5" y="1175.73" width="2.41" height="19.79"/><rect class="cls-7" x="1994.63" y="1175.73" width="2.41" height="19.79"/><rect class="cls-7" x="1999.58" y="1175.73" width="2.41" height="19.79"/><path class="cls-7" d="M2005.72,1175.8v19.64a5.49,5.49,0,0,1-.91.07h-1.5v-19.78h1.5A5.49,5.49,0,0,1,2005.72,1175.8Z"/><path class="cls-7" d="M2009.06,1177.63v16a5,5,0,0,1-2.4,1.61V1176A5.12,5.12,0,0,1,2009.06,1177.63Z"/><path class="cls-6" d="M2016.57,1160.28v11.17a3.85,3.85,0,0,1-.87,2.41,5.2,5.2,0,0,1-2.41,1.61,5.84,5.84,0,0,1-.94.22l-.3,0H1799.5c-2.73,0-5-1.82-5.12-4.09,0-.07,0-.14,0-.22v-11.17c0-.07,0-.15,0-.22.14-2.27,2.39-4.09,5.12-4.09h212a6.56,6.56,0,0,1,.9.07,5.84,5.84,0,0,1,.94.22,5.2,5.2,0,0,1,2.41,1.61A3.85,3.85,0,0,1,2016.57,1160.28Z"/><path class="cls-7" d="M1912.5,1175.76H1799a4.48,4.48,0,0,1-4.57-4.09c0-.07,0-.14,0-.22v-11.17c0-.07,0-.15,0-.22A4.48,4.48,0,0,1,1799,1156h99.6a34.74,34.74,0,0,0,13.9,19.76Z"/><rect class="cls-7" x="1988.38" y="1155.97" width="2.41" height="19.79"/><rect class="cls-7" x="1980.22" y="1155.97" width="2.41" height="19.79"/><rect class="cls-7" x="1970.44" y="1155.97" width="2.41" height="19.79"/><rect class="cls-7" x="1955.46" y="1155.97" width="2.41" height="19.79"/><rect class="cls-7" x="1939.61" y="1155.97" width="2.41" height="19.79"/><rect class="cls-7" x="1915.31" y="1155.97" width="2.41" height="19.79"/><rect class="cls-7" x="1892.56" y="1155.97" width="2.41" height="19.79"/><rect class="cls-7" x="1872.25" y="1155.97" width="2.41" height="19.79"/><rect class="cls-7" x="1996.14" y="1155.97" width="2.41" height="19.79"/><rect class="cls-7" x="2001.27" y="1155.97" width="2.41" height="19.79"/><rect class="cls-7" x="2006.22" y="1155.97" width="2.41" height="19.79"/><path class="cls-7" d="M2012.35,1156v19.65a6.56,6.56,0,0,1-.9.07h-1.51V1156h1.51A6.56,6.56,0,0,1,2012.35,1156Z"/><path class="cls-7" d="M2015.7,1157.87v16a5.2,5.2,0,0,1-2.41,1.61v-19.21A5.2,5.2,0,0,1,2015.7,1157.87Z"/><circle class="cls-8" cx="1916.85" cy="1022.74" r="132.12"/><circle class="cls-6" cx="1905.32" cy="1022.74" r="132.12"/><path class="cls-7" d="M1905.32,1144.68a120.39,120.39,0,1,1,85.12-35.26A119.55,119.55,0,0,1,1905.32,1144.68Zm0-233.57a113.2,113.2,0,1,0,113.2,113.19A113.32,113.32,0,0,0,1905.32,911.11Z"/><path class="cls-7" d="M1921.89,1059.24a19.73,19.73,0,0,0-.28-7,14.37,14.37,0,0,0-3-5.8,27.06,27.06,0,0,0-5.91-5.22,72,72,0,0,0-9.15-5.13,191.32,191.32,0,0,1-16.92-9.29,60.31,60.31,0,0,1-12.64-10.29,35.12,35.12,0,0,1-7.47-12.55,39.74,39.74,0,0,1,3.21-30.08,33.51,33.51,0,0,1,9.33-10.36,41.64,41.64,0,0,1,13.36-6.36,55.37,55.37,0,0,1,16.67-1.92l2.36-19.85,16,1.9-2.39,20.12a49.92,49.92,0,0,1,15,6.39A37.76,37.76,0,0,1,1956.92,988a50.33,50.33,0,0,1,.66,17l-28.84-3.42q1.32-11.12-3-17.23t-12.57-7.08a21.47,21.47,0,0,0-7.88.33,14.59,14.59,0,0,0-5.75,2.8,13.54,13.54,0,0,0-3.7,4.78,19.78,19.78,0,0,0-1.76,6.28,18.36,18.36,0,0,0,.26,6.33,13.59,13.59,0,0,0,2.83,5.55,27.41,27.41,0,0,0,6,5.22,94.47,94.47,0,0,0,9.52,5.5q9.25,4.77,16.74,9.51a60.31,60.31,0,0,1,12.58,10.38,35.58,35.58,0,0,1,7.46,12.59,39.92,39.92,0,0,1-3.28,30.26,33.11,33.11,0,0,1-9.37,10.26,40,40,0,0,1-13.43,6.12,59.68,59.68,0,0,1-16.75,1.77l-2.19,18.45-15.87-1.88,2.17-18.36a67.84,67.84,0,0,1-15.59-5.51,43,43,0,0,1-12.77-9.65,38.19,38.19,0,0,1-8-14.35q-2.65-8.4-1.33-19.53l28.85,3.43a28.57,28.57,0,0,0,.54,11.2,18.64,18.64,0,0,0,4.1,7.64,18.16,18.16,0,0,0,6.6,4.54,31.18,31.18,0,0,0,7.91,2,25.81,25.81,0,0,0,8.37-.23,17.21,17.21,0,0,0,6.34-2.63,13.75,13.75,0,0,0,4.19-4.63A16.63,16.63,0,0,0,1921.89,1059.24Z"/><g id="man"><path class="cls-9" d="M1458.26,614.76,1418.59,690l-20.34-7.4,6.6,20.09-39.77,119.8S1343.08,670.29,1458.26,614.76Z"/><path class="cls-9" d="M1392.08,681.3S1348.22,843,1344,997.33c0,0,36.38,12.68,93.54,2.64C1495,989.88,1392.08,681.3,1392.08,681.3Z"/><path class="cls-10" d="M1182,905.54c11.77-.22,28.35,1.24,33.82-4.75,6.21-6.8,13.53-5.8,13.53-5.8l-1.48-7.76-1.78-9.27s-.67-.85-3.08-.82c0,0-8.53.37-12.6-1.09-9.91-3.54-49.36,20.1-48,26.66C1162.92,905.16,1177,905.64,1182,905.54Z"/><path class="cls-9" d="M1397,678.13s-66.63,137.63-87.26,152.41-94.13,46.72-94.13,46.72-1.92,4.57-.14,11.28c1.86,7,5.53,9,5.53,9s102.77-9.18,126.67-24,76.58-74.16,76.58-74.16Z"/><path class="cls-9" d="M1592.07,1449.82h39.43c5-2.7,9.39-8.87,10.79-18.07,1.93-12.71,16.17-19.64,19.25-30s-12.71-25-12.71-25l-2.64-3.41-2.74-3.53-26.18,6.17s-.65,6.23-1,14.17a177.29,177.29,0,0,0-.11,18.16c.77,13.85-3.88,28.78-16.19,31.47C1590.82,1441.74,1591.23,1447.14,1592.07,1449.82Z"/><path class="cls-9" d="M1363.19,1449.82h90.19c4.34-5.3,2.74-24.83,2.08-31.21-.13-1.28-.23-2-.23-2s-30.79-24.63-35-5.77c-.13.59-.29,1.17-.46,1.74-5.33,17.64-29.24,25.66-43,27.89C1367.73,1441.9,1364.42,1446.56,1363.19,1449.82Z"/><path class="cls-6" d="M1380.37,946.39s4.68,58.35,10.18,128.48c7.47,95.27,16.45,212.3,17.34,234.47,1.54,38.5,7.7,100.08,7.7,100.08s14.62,14.63,43.88,8.46c0,0,26.07-87.9,33.52-180.91.12-1.53.23-3.06.35-4.6,6.93-94.68,17.7-294.06,17.7-294.06Z"/><path class="cls-7" d="M1380.37,946.39s4.68,58.35,10.18,128.48L1493,1237c.12-1.53.23-3.06.35-4.6,6.93-94.68,17.7-294.06,17.7-294.06Z"/><path class="cls-6" d="M1401.73,953.32s84.29,211.31,139.72,310.61,72.74,127,72.74,127,31.76-12.71,34.64-21.37c0,0-21.19-191.71-58.31-238.44-21-26.41-45.61-105.65-46.76-133.37s-7.51-82.56-7.51-82.56Z"/><path class="cls-8" d="M1422.71,645.28c32.94,10.39,89.94-17.66,89.94-17.66s-30.37-22.79-28.78-70.19L1458.4,578l-17.3,13.94a207.05,207.05,0,0,0,2,22.62c.35,2.63.75,5.46,1.23,8.49a6.11,6.11,0,0,1-2.77,6.15A77.89,77.89,0,0,0,1422.71,645.28Z"/><path class="cls-2" d="M1376.74,951.25a5.34,5.34,0,0,0,3.46,1.32c12.37-.17,48.44,6.7,79,3.57,25.73-2.47,48.5-10.09,73-21.06,3.25-1.45,10.72-5.44,10.55-9.07-.1-4-.5-9.74-1-17-1.73-25.25-4.74-68.66-1.8-118.75.53-9.33.8-18.58.84-27.69.25-67.89-13.21-127.6-40.26-147.81,0,0-18.86,10.58-31.91,14.75-12.79,4.09-19.39,3.27-26-1.13,0,0-12.92,6.42-18.44,12.43-12.78,13.94-22.76,32.44-29.36,59-5.61,22.59-10.86,55.54-12.68,97.77C1381.22,816.7,1375.92,950.59,1376.74,951.25Z"/><path class="cls-11" d="M1536.71,726.93l-36.26-112.17s-87,32.83-91.08,155.74c-1.59,28-8.3,142.8,3.85,237.93,0,0,67.82,26.42,151-25.72Z"/><path class="cls-10" d="M1441.1,591.9a207.05,207.05,0,0,0,2,22.62c19.17-3.29,40.91-34.27,40.91-34.27-9.76-2.82-18.3-3.33-25.57-2.29Z"/><path class="cls-8" d="M1426.83,591s59.33,9.86,64.9-27.19,17-60.71-20.67-68.57-47.14,5.17-52,17.08S1411.54,587.5,1426.83,591Z"/><path class="cls-9" d="M1687.16,1070.2,1566,1087.46a29,29,0,0,1-32.75-24.57l-7.48-52.5a29,29,0,0,1,24.58-32.75l121.13-17.26A29,29,0,0,1,1704.26,985l7.48,52.49A29,29,0,0,1,1687.16,1070.2Z"/><path class="cls-11" d="M1541.76,1008.08l7.57,53.1a29.11,29.11,0,0,0,17.11,22.49,28.53,28.53,0,0,0,9.44,2.39h0a29.14,29.14,0,0,0,6.31-.2l120.91-17.24a29.13,29.13,0,0,0,24.67-32.87l-7.56-53.1A29.14,29.14,0,0,0,1687.36,958l-41.64,5.93-1.61-11.33a9.61,9.61,0,0,0-10.84-8.14l-4.57.65-25.33,3.61-6.29.9a9.61,9.61,0,0,0-8.14,10.85l1.61,11.32-24.12,3.44a28.07,28.07,0,0,0-2.79.54h0a29.16,29.16,0,0,0-20.07,17.52h0A28.86,28.86,0,0,0,1541.76,1008.08Zm98-43.32-43.27,6.17-1.61-11.33a3.59,3.59,0,0,1,3-4.05l10.86-1.55,19.94-2.84,5.38-.77a3.47,3.47,0,0,1,1.07,0,3.59,3.59,0,0,1,3,3Z"/><path class="cls-8" d="M1595.05,913.89s6.36,8.48,6.61,11.86c1.71,23-8.77,26.13,18.38,38.88,0,0,11.59,4.42,11.78-4.58s-8-9.15-6.53-21.74c1.74-14.53,1.56-14.67-8-22.26L1611,905.62Z"/><path class="cls-11" d="M1611.23,920.39a93.51,93.51,0,0,1-21.32,1.19s-30.36-93.8-34.27-102.37-90.19-110-90.19-110l35-94.46s20.53,12,42.23,49.46c26.8,46.25,56.28,120.74,61.51,132.84,15.66,36.2,21.1,117.35,21.1,117.35A39.18,39.18,0,0,1,1611.23,920.39Z"/><path class="cls-9" d="M1491.78,560.27s-6.09-1-5.11-9.4,1-19.35-5.85-17.31-7.15,7.5-10,4.32-2.85-16.62-23.14-17.56-28.53,6.13-38,2-9.93-18.43-9.93-18.43,2.68,5.1,6.73,6.72c0,0-15.74-21.52,2.49-36.29s36.8-5.09,47.35-4.45c23.23,1.4,38.24,2.8,45.83,18.06S1506.69,545.57,1491.78,560.27Z"/><path class="cls-8" d="M1605.09,924s-6.13,6.38-6.52,9c-1.24,8.53-4.09,12.21-2.66,13.14,3,1.93,6.89-4.39,8.77-10S1605.09,924,1605.09,924Z"/><path class="cls-9" d="M1500.45,614.76,1460.78,690l-20.34-7.4,6.6,20.09-39.77,119.8S1385.27,670.29,1500.45,614.76Z"/></g><path class="cls-2" d="M1422.71,570s2.31,6.11,8.09,6.27,10.23-5.45,10.23-5.45S1428.49,567.92,1422.71,570Z"/><path class="cls-6" d="M1113.15,1137.85l120.46-27.91a29.35,29.35,0,0,0,21.9-35.11l-12.1-52.2a29.35,29.35,0,0,0-35.11-21.91l-120.46,27.91a29.36,29.36,0,0,0-21.9,35.11L1078,1116A29.34,29.34,0,0,0,1113.15,1137.85Z"/><path class="cls-7" d="M1220.46,1013h0a29.5,29.5,0,0,0-25.31-9.2h0a28.48,28.48,0,0,0-2.83.5l-24,5.57-2.61-11.27a9.69,9.69,0,0,0-11.63-7.25l-6.25,1.45-25.19,5.83-4.54,1.06a9.69,9.69,0,0,0-7.25,11.62l2.61,11.27-41.4,9.59a29.46,29.46,0,0,0-22,35.24l12.24,52.81a29.46,29.46,0,0,0,35.24,22l120.25-27.86a28.51,28.51,0,0,0,6-2.11h0a28.73,28.73,0,0,0,8-5.69,29.41,29.41,0,0,0,7.92-27.43l-12.23-52.81A29.12,29.12,0,0,0,1220.46,1013Zm-103.71-3.06a3.61,3.61,0,0,1,1.7-3.93,3.76,3.76,0,0,1,1-.41l5.34-1.24,19.83-4.59,10.8-2.5a3.61,3.61,0,0,1,4.34,2.7l2.62,11.27-43,10Z"/><path class="cls-8" d="M1141.46,945s-3.63,12.9-2.39,17c8.47,27.86,23.1,46.09-16.24,41.38,0,0,1.63-1.61-5.9-15.78-8.68-16.35-8.54-16.59-.75-29.9l2.68-15.2Z"/><path class="cls-8" d="M1191,911.86c-11.87-.72-26.35-3.83-31.62-10.1-6-7.12-11.95-9-11.95-9l1.82-7.77,2.18-9.29s.72-.82,3.15-.69c0,0,9.31,2.11,12.77-.57s9.78-1,13.67,1.55c5,3.29,11.64,2.75,11.48,4.36,0,0-9.82,4.83-8.91,5.64,9,8,32.67,11.16,31.13,17.39C1214.06,905.8,1196,912.17,1191,911.86Z"/><path class="cls-8" d="M1025.46,608.47l0,6.45s1.76,20.19-23.1,23.14-45.25,2.56-44.57-13C960,613,964,594.26,964.17,584.28a70.51,70.51,0,0,0-.89-12.09l48.17-1,14.19,2.32Z"/><path class="cls-10" d="M1025.64,573.55l-.18,34.92a40.89,40.89,0,0,1-17.37,3.83c-22.13,0-36.45-16.24-43.92-28a70.51,70.51,0,0,0-.89-12.09l48.17-1Z"/><path class="cls-8" d="M959.59,564.44c5.59,30.08,44.4,29.09,61.18,27.2,4.72-.53,7.69-1.13,7.69-1.13,5.32-1.42,8.29-9.8,9.67-20.78,2.74-21.74-.72-53.64-4.39-61.8-5.53-12.27-15.94-25.55-55-16S952.42,525.9,959.59,564.44Z"/><path class="cls-9" d="M927.83,1455h55a132.15,132.15,0,0,0-4.39-19.74,56.06,56.06,0,0,0-3.11-7.92c-5.35-10.68-39.33-3.89-39.33-3.89s-3.15,2.71-5.61,13A108.53,108.53,0,0,0,927.83,1455Z"/><path class="cls-9" d="M1094,1437.66c.15,7.48,1.09,14.56,3.81,17.35h108.78c-1.38-3.93-5.29-9.85-16.46-11.67-12.69-2-32.47-8.16-44-20.37a32.76,32.76,0,0,1-8.53-15.43c-5.12-22.79-42.32,7-42.32,7A184.59,184.59,0,0,0,1094,1437.66Z"/><path class="cls-11" d="M1021.67,1191.33a169.55,169.55,0,0,1,2.73,20.1c3.46,67.46,56.79,221.7,66.33,225.29,14.76,5.57,38-6.27,50.15-10.14,5-1.61,8.44-6.69,7.32-11.85-26.41-121.4-36.11-296.21-39.64-399.71-1.79-52.13-10.73-88.14-10.73-88.14S967.77,892.18,967,936.07C966.31,974.92,1010.08,1127.26,1021.67,1191.33Z"/><path class="cls-9" d="M1021.67,1191.33,1108.56,1015c-1.79-52.13-10.73-88.14-10.73-88.14S967.77,892.18,967,936.07C966.31,974.92,1010.08,1127.26,1021.67,1191.33Z"/><path class="cls-11" d="M1050.61,936.23l-68.75,498.31s-30.2,7.28-53.68,1.45c0,0-20.13-265-18.45-329.09s-14.45-171.45,3.68-183.29S1050.61,936.23,1050.61,936.23Z"/><path class="cls-9" d="M1035.24,512.64c-10.74,3.38-33.45-.07-42.94,7.61s-.45,20.35-11.3,24.87h0a5.33,5.33,0,0,1-6.23-1.56c-3-3.75-7.16-7.49-11-5.94-3.12,1.28-3.28,5.3-1.9,9.22a10.91,10.91,0,0,1-1.17,9.85,5.38,5.38,0,0,0-1.18,4c.9,5,3.37,11.42,4.27,14.72l.25,3.46s-18.18-19.67-25.83-36.23c-5.26-11.36-5.15-53.83,20.55-66.24a.74.74,0,0,1-.25-.28c-.55-1-2.1-.76-2.1-.76,2.21-1,5.64-.37,5.64-.37s.06-.21.37-.45c.45-3,3.47-5.14,3.47-5.14a10.05,10.05,0,0,0-1.64,4.05c6.75-3.55,27.52-11.44,44-4.27a138,138,0,0,0,28.29,8.77,11.79,11.79,0,0,1,9.56,12C1045.78,498.11,1042.94,509.84,1035.24,512.64Z"/><path class="cls-1" d="M951.88,633.7l15.83,339.65s132.12,2.16,128.35-27.74-47.62-301.51-47.62-301.51Z"/><path class="cls-12" d="M995.44,846.46s-6.71,90.72-19.59,147.67c0,0-77.1,4.09-95.4-25.68,0,0,14.49-122.55,14.49-147.4,0-8.74-.68-20.62-1.74-33.89-1.61-20.12-4.1-43.41-6.46-63.71-3.28-28.26-6.29-50.72-6.29-50.72L944,621.07Z"/><path class="cls-12" d="M1148.42,953.79s-14.38,9-37,6c-8.24,20.22-27.69,27.09-27.69,25.26,0-.22-4.36-38.19-9.52-82.93l-1.55-13.57c0-.39-.1-.78-.14-1.17-.87-7.5-1.74-15.08-2.61-22.62-6.21-53.89-12.17-105.54-12.17-105.54-13.52-82.76-25-137.46-25-137.46,28.84,3,48.3,13.28,56.07,26.73,23,39.9,39.69,139.7,49.45,214.41a5.58,5.58,0,0,0,.08.57c1.68,12.89,3.16,25,4.41,36,.09.68.16,1.36.24,2C1146.58,932.77,1148.42,953.79,1148.42,953.79Z"/><path class="cls-2" d="M1014.67,569.39s1.25,3.88,11,2.46c0,0,8.23-1.19,7.62-5.52C1033.33,566.33,1025.06,563.9,1014.67,569.39Z"/><path class="cls-13" d="M948.14,620.67c-.16-3.24,15.19-7.72,15.19-7.72s17.58,24.36,46.53,24.78c0,0-8.25,16.06-18,20.22C991.88,658,949.1,639.92,948.14,620.67Z"/><path class="cls-13" d="M1009.86,637.16s15.34-9.09,15.39-18.95c0,0,9.9-1.24,14.23,3.57,0,0,3.64,16.89-1.19,26.7C1038.29,648.48,1016.21,645.12,1009.86,637.16Z"/><path class="cls-14" d="M999.45,635.7l20.79-5s2.72.23,2.65,3.62-5.86,13.29-8.42,14.08S994.53,642.55,999.45,635.7Z"/><path class="cls-1" d="M950.56,619c-.16-3.24,10.23-9.92,10.23-9.92s20.12,23.51,49.07,23.93c0,0-8.25,16.06-18,20.22C991.88,653.22,951.52,638.24,950.56,619Z"/><path class="cls-1" d="M1009.86,633s15.51-8.22,15.56-18.08c0,0,9.37,4.12,13.69,8.92,0,0,4,10.67-.82,20.48C1038.29,644.32,1016.21,641,1009.86,633Z"/><path class="cls-6" d="M1047.88,917.8a44.16,44.16,0,0,1-10.46,25.54l-9.32,10.52a4.76,4.76,0,0,1-7.89-.68L1009,935.54a27.09,27.09,0,0,1-3.87-16.8c1.2-13.46,3.44-39.4,5.27-64.43,1.49-20.29,2.72-40,2.92-52,.62-38.24-4.4-160.13-4.4-160.13l7.48.39s18.12,47.12,27.22,111.42c2.25,15.83,3.94,32.68,4.69,50.15C1048.27,804.17,1051.49,873.78,1047.88,917.8Z"/><path class="cls-14" d="M1047.88,917.8a44.16,44.16,0,0,1-10.46,25.54l-9.32,10.52a4.76,4.76,0,0,1-7.89-.68L1009,935.54a27.09,27.09,0,0,1-3.87-16.8c1.2-13.46,3.44-39.4,5.27-64.43,20.94-28.71,29.7-68.15,33.22-100.29,2.25,15.83,3.94,32.68,4.69,50.15C1048.27,804.17,1051.49,873.78,1047.88,917.8Z"/><path class="cls-9" d="M960.79,609.07S1002,781.54,995.42,846.5c0,0-15.14-69.42-51.58-126.29,0,0,13.3-11.69,12.58-16,0,0-9.87-2.93-19.45-1,0,0,1.06-74.34,7-82.19S960.79,609.07,960.79,609.07Z"/><path class="cls-9" d="M1025.42,614.92c-6.17.5,40.81,168.53,44.29,222.39,0,0-4.13-96.11-3.72-123.81,0,0-17.1-9.06-17.1-12.23s18.24-11.77,18.24-11.77-11.55-59.19-17.86-65.71S1025.42,614.92,1025.42,614.92Z"/><path class="cls-8" d="M1111.41,966.61s-2.85,3.86-1,13.56.81,15,3.31,13.37,7.69-13.31,7.69-13.31Z"/><path class="cls-9" d="M990.41,873c-47.94-7.16-80-52-97.21-85.88-1.61-20.12-4.1-43.41-6.46-63.71l11.22-32Z"/><path class="cls-9" d="M1143,901.47c-9.55,2.2-38.51,7.62-68.82.64l-1.55-13.57c0-.39-.1-.78-.14-1.17,1-3.89,2-7.78,3-11.67,17.15,6.14,55.49,19.59,67.28,23.74C1142.84,900.12,1142.91,900.8,1143,901.47Z"/><path class="cls-12" d="M944,621.06s-42.12,5.32-61.35,32.16,22.07,173,107.76,219.81c41.22,22.52,160.16,27.59,160.16,27.59s6.54.65,9.13-12.51c.9-4.59,0-12.41,0-12.41s-135.39-50.77-147.29-60.54S944,621.06,944,621.06Z"/><path class="cls-10" d="M1210.45,876.05s-14.16-3.55-18.23-4.41c-4.74-1-9.07-4.56-10.46-2.88-2.57,3.12,8.28,8.61,12.55,18.25,2.1,4.74,6.33,7.31,14.8,3.84C1213.38,889.09,1216.78,880.25,1210.45,876.05Z"/><path class="cls-15" d="M1612,529.94a61.52,61.52,0,1,1,61.52,61.51A61.51,61.51,0,0,1,1612,529.94Z"/><circle class="cls-2" cx="1673.54" cy="505.26" r="19.74"/><path class="cls-2" d="M1673.54,525A34.54,34.54,0,0,0,1639,559.55h69.1A34.54,34.54,0,0,0,1673.54,525Z"/><circle class="cls-16" cx="1218.88" cy="366.3" r="41.5"/><circle class="cls-2" cx="1218.88" cy="349.65" r="13.32" transform="translate(838.9 1559.42) rotate(-88.57)"/><path class="cls-2" d="M1218.88,363a23.3,23.3,0,0,0-23.3,23.3h46.61A23.31,23.31,0,0,0,1218.88,363Z"/><path class="cls-15" d="M1514.76,158a3.62,3.62,0,1,1,2.39,4.52A3.63,3.63,0,0,1,1514.76,158Z"/><path class="cls-15" d="M1530.74,162.87a3.61,3.61,0,1,1,2.39,4.51A3.61,3.61,0,0,1,1530.74,162.87Z"/><path class="cls-15" d="M1549.32,172.37a3.61,3.61,0,1,1,4.51-2.4A3.61,3.61,0,0,1,1549.32,172.37Z"/><path class="cls-15" d="M1563.11,172.83a3.62,3.62,0,1,1,2.39,4.52A3.61,3.61,0,0,1,1563.11,172.83Z"/><path class="cls-15" d="M1579.09,177.75a3.61,3.61,0,1,1,2.39,4.51A3.61,3.61,0,0,1,1579.09,177.75Z"/><path class="cls-15" d="M1597.67,187.24a3.61,3.61,0,1,1,4.51-2.39A3.6,3.6,0,0,1,1597.67,187.24Z"/><path class="cls-15" d="M1610.82,187.51a3.61,3.61,0,1,1,2.39,4.51A3.6,3.6,0,0,1,1610.82,187.51Z"/><path class="cls-15" d="M1626.79,192.42a3.62,3.62,0,1,1,2.39,4.52A3.63,3.63,0,0,1,1626.79,192.42Z"/><path class="cls-15" d="M1645.37,201.92a3.62,3.62,0,1,1,4.52-2.39A3.61,3.61,0,0,1,1645.37,201.92Z"/><path class="cls-15" d="M1659.17,202.38a3.61,3.61,0,1,1,2.39,4.52A3.62,3.62,0,0,1,1659.17,202.38Z"/><path class="cls-15" d="M1675.15,207.3a3.61,3.61,0,1,1,2.39,4.52A3.6,3.6,0,0,1,1675.15,207.3Z"/><path class="cls-15" d="M1693.72,216.8a3.62,3.62,0,1,1,4.52-2.39A3.63,3.63,0,0,1,1693.72,216.8Z"/><path class="cls-15" d="M1707.56,217.27a3.62,3.62,0,1,1,2.39,4.52A3.63,3.63,0,0,1,1707.56,217.27Z"/><path class="cls-15" d="M1723.54,222.19a3.61,3.61,0,1,1,2.39,4.51A3.6,3.6,0,0,1,1723.54,222.19Z"/><path class="cls-15" d="M1742.12,231.69a3.61,3.61,0,1,1,4.51-2.39A3.63,3.63,0,0,1,1742.12,231.69Z"/><path class="cls-15" d="M1755.91,232.15a3.62,3.62,0,1,1,2.39,4.52A3.61,3.61,0,0,1,1755.91,232.15Z"/><path class="cls-15" d="M1771.89,237.07a3.61,3.61,0,1,1,2.39,4.51A3.6,3.6,0,0,1,1771.89,237.07Z"/><path class="cls-15" d="M1790.47,246.56a3.61,3.61,0,1,1,4.51-2.39A3.6,3.6,0,0,1,1790.47,246.56Z"/><path class="cls-15" d="M1803.61,246.83a3.61,3.61,0,1,1,2.39,4.51A3.61,3.61,0,0,1,1803.61,246.83Z"/><path class="cls-15" d="M1819.59,251.74a3.62,3.62,0,1,1,2.39,4.52A3.63,3.63,0,0,1,1819.59,251.74Z"/><path class="cls-15" d="M1838.17,261.24a3.61,3.61,0,1,1,4.51-2.39A3.61,3.61,0,0,1,1838.17,261.24Z"/><path class="cls-15" d="M1852,261.71a3.61,3.61,0,1,1,2.39,4.51A3.61,3.61,0,0,1,1852,261.71Z"/><path class="cls-15" d="M1867.94,266.62a3.62,3.62,0,1,1,2.39,4.52A3.61,3.61,0,0,1,1867.94,266.62Z"/><path class="cls-15" d="M1886.52,276.12a3.61,3.61,0,1,1,4.52-2.39A3.61,3.61,0,0,1,1886.52,276.12Z"/><path class="cls-15" d="M1716.64,467a3.61,3.61,0,1,1,5-.78A3.61,3.61,0,0,1,1716.64,467Z"/><path class="cls-15" d="M1726.52,453.52a3.61,3.61,0,1,1,5-.77A3.6,3.6,0,0,1,1726.52,453.52Z"/><path class="cls-15" d="M1741.57,439.08a3.61,3.61,0,1,1-.78-5.05A3.6,3.6,0,0,1,1741.57,439.08Z"/><path class="cls-15" d="M1746.53,426.2a3.61,3.61,0,1,1,5-.78A3.62,3.62,0,0,1,1746.53,426.2Z"/><path class="cls-15" d="M1756.41,412.72a3.61,3.61,0,1,1,5-.78A3.61,3.61,0,0,1,1756.41,412.72Z"/><path class="cls-15" d="M1771.47,398.27a3.61,3.61,0,1,1-.78-5A3.61,3.61,0,0,1,1771.47,398.27Z"/><path class="cls-15" d="M1776.45,385.36a3.61,3.61,0,1,1,5-.78A3.62,3.62,0,0,1,1776.45,385.36Z"/><path class="cls-15" d="M1786.33,371.87a3.61,3.61,0,1,1,5.05-.78A3.61,3.61,0,0,1,1786.33,371.87Z"/><path class="cls-15" d="M1801.39,357.43a3.61,3.61,0,1,1-.78-5.05A3.61,3.61,0,0,1,1801.39,357.43Z"/><path class="cls-15" d="M1806.35,344.55a3.61,3.61,0,1,1,5.05-.78A3.61,3.61,0,0,1,1806.35,344.55Z"/><path class="cls-15" d="M1816.23,331.06a3.61,3.61,0,1,1,5-.78A3.61,3.61,0,0,1,1816.23,331.06Z"/><path class="cls-15" d="M1831.29,316.62a3.61,3.61,0,1,1-.78-5.05A3.61,3.61,0,0,1,1831.29,316.62Z"/><path class="cls-15" d="M1835.84,304.28a3.61,3.61,0,1,1,5.05-.78A3.61,3.61,0,0,1,1835.84,304.28Z"/><path class="cls-15" d="M1845.72,290.8a3.61,3.61,0,1,1,5-.78A3.61,3.61,0,0,1,1845.72,290.8Z"/><path class="cls-15" d="M1860.78,276.36a3.61,3.61,0,1,1-.78-5.05A3.61,3.61,0,0,1,1860.78,276.36Z"/><path class="cls-15" d="M1865.74,263.47a3.61,3.61,0,1,1,5-.77A3.6,3.6,0,0,1,1865.74,263.47Z"/><path class="cls-15" d="M1875.62,250a3.61,3.61,0,1,1,5.05-.78A3.61,3.61,0,0,1,1875.62,250Z"/><path class="cls-15" d="M1890.67,235.55a3.61,3.61,0,1,1-.77-5.05A3.6,3.6,0,0,1,1890.67,235.55Z"/><path class="cls-15" d="M1746.54,523.62a3.61,3.61,0,1,1,4.14,3A3.6,3.6,0,0,1,1746.54,523.62Z"/><path class="cls-15" d="M1763,520.92a3.61,3.61,0,1,1,4.15,3A3.61,3.61,0,0,1,1763,520.92Z"/><path class="cls-15" d="M1783.89,521.16a3.61,3.61,0,1,1,3-4.15A3.62,3.62,0,0,1,1783.89,521.16Z"/><path class="cls-15" d="M1796.46,515.44a3.61,3.61,0,1,1,4.15,3A3.6,3.6,0,0,1,1796.46,515.44Z"/><path class="cls-15" d="M1813,512.73a3.61,3.61,0,1,1,4.15,3A3.62,3.62,0,0,1,1813,512.73Z"/><path class="cls-15" d="M1833.81,513a3.61,3.61,0,1,1,3-4.15A3.6,3.6,0,0,1,1833.81,513Z"/><path class="cls-15" d="M1846.42,507.25a3.61,3.61,0,1,1,4.15,3A3.61,3.61,0,0,1,1846.42,507.25Z"/><path class="cls-15" d="M1862.92,504.54a3.61,3.61,0,1,1,4.15,3A3.61,3.61,0,0,1,1862.92,504.54Z"/><path class="cls-15" d="M1883.78,504.78a3.61,3.61,0,1,1,3-4.15A3.6,3.6,0,0,1,1883.78,504.78Z"/><path class="cls-15" d="M1896.34,499.06a3.61,3.61,0,1,1,4.15,3A3.62,3.62,0,0,1,1896.34,499.06Z"/><path class="cls-15" d="M1912.84,496.36a3.61,3.61,0,1,1,4.15,3A3.61,3.61,0,0,1,1912.84,496.36Z"/><path class="cls-15" d="M1933.7,496.6a3.61,3.61,0,1,1,3-4.15A3.61,3.61,0,0,1,1933.7,496.6Z"/><path class="cls-15" d="M1945.6,491a3.61,3.61,0,1,1,4.14,3A3.6,3.6,0,0,1,1945.6,491Z"/><path class="cls-15" d="M1962.09,488.29a3.61,3.61,0,1,1,4.15,3A3.61,3.61,0,0,1,1962.09,488.29Z"/><path class="cls-15" d="M1983,488.53a3.61,3.61,0,1,1,3-4.15A3.62,3.62,0,0,1,1983,488.53Z"/><path class="cls-15" d="M1995.52,482.81a3.61,3.61,0,1,1,4.15,3A3.6,3.6,0,0,1,1995.52,482.81Z"/><path class="cls-15" d="M2012,480.1a3.61,3.61,0,1,1,4.15,3A3.62,3.62,0,0,1,2012,480.1Z"/><path class="cls-15" d="M2032.88,480.34a3.61,3.61,0,1,1,3-4.15A3.6,3.6,0,0,1,2032.88,480.34Z"/><path class="cls-15" d="M1651.59,457.73a3.61,3.61,0,1,1,2.34-4.54A3.63,3.63,0,0,1,1651.59,457.73Z"/><path class="cls-15" d="M1646.5,441.8a3.61,3.61,0,1,1,2.34-4.54A3.61,3.61,0,0,1,1646.5,441.8Z"/><path class="cls-15" d="M1643.68,421.13a3.61,3.61,0,1,1-4.54-2.34A3.61,3.61,0,0,1,1643.68,421.13Z"/><path class="cls-15" d="M1636.18,409.54a3.61,3.61,0,1,1,2.34-4.54A3.61,3.61,0,0,1,1636.18,409.54Z"/><path class="cls-15" d="M1631.09,393.62a3.61,3.61,0,1,1,2.34-4.54A3.61,3.61,0,0,1,1631.09,393.62Z"/><path class="cls-15" d="M1628.27,373a3.61,3.61,0,1,1-4.54-2.34A3.61,3.61,0,0,1,1628.27,373Z"/><path class="cls-15" d="M1620.76,361.31a3.61,3.61,0,1,1,2.35-4.54A3.61,3.61,0,0,1,1620.76,361.31Z"/><path class="cls-15" d="M1615.67,345.39a3.61,3.61,0,1,1,2.34-4.54A3.61,3.61,0,0,1,1615.67,345.39Z"/><path class="cls-15" d="M1612.86,324.72a3.61,3.61,0,1,1-4.54-2.34A3.62,3.62,0,0,1,1612.86,324.72Z"/><path class="cls-15" d="M1605.36,313.13a3.61,3.61,0,1,1,2.34-4.54A3.61,3.61,0,0,1,1605.36,313.13Z"/><path class="cls-15" d="M1600.27,297.21a3.62,3.62,0,1,1,2.34-4.54A3.62,3.62,0,0,1,1600.27,297.21Z"/><path class="cls-15" d="M1597.45,276.53a3.61,3.61,0,1,1-4.54-2.34A3.61,3.61,0,0,1,1597.45,276.53Z"/><path class="cls-15" d="M1590.16,265.59a3.61,3.61,0,1,1,2.34-4.54A3.61,3.61,0,0,1,1590.16,265.59Z"/><path class="cls-15" d="M1585.07,249.67a3.61,3.61,0,1,1,2.34-4.54A3.62,3.62,0,0,1,1585.07,249.67Z"/><path class="cls-15" d="M1582.25,229a3.61,3.61,0,1,1-4.54-2.34A3.62,3.62,0,0,1,1582.25,229Z"/><path class="cls-15" d="M1574.76,217.4a3.61,3.61,0,1,1,2.34-4.54A3.61,3.61,0,0,1,1574.76,217.4Z"/><path class="cls-15" d="M1569.67,201.48a3.61,3.61,0,1,1,2.34-4.54A3.61,3.61,0,0,1,1569.67,201.48Z"/><path class="cls-15" d="M1566.85,180.81a3.61,3.61,0,1,1-4.54-2.34A3.61,3.61,0,0,1,1566.85,180.81Z"/><path class="cls-15" d="M1242,346a3.62,3.62,0,1,1,5,.92A3.62,3.62,0,0,1,1242,346Z"/><path class="cls-15" d="M1255.75,336.54a3.61,3.61,0,1,1,5,.92A3.61,3.61,0,0,1,1255.75,336.54Z"/><path class="cls-15" d="M1274.71,327.84a3.61,3.61,0,1,1,.92-5A3.6,3.6,0,0,1,1274.71,327.84Z"/><path class="cls-15" d="M1283.63,317.3a3.61,3.61,0,1,1,5,.92A3.59,3.59,0,0,1,1283.63,317.3Z"/><path class="cls-15" d="M1297.38,307.81a3.62,3.62,0,1,1,5,.92A3.62,3.62,0,0,1,1297.38,307.81Z"/><path class="cls-15" d="M1316.35,299.11a3.62,3.62,0,1,1,.92-5A3.62,3.62,0,0,1,1316.35,299.11Z"/><path class="cls-15" d="M1325.29,288.54a3.61,3.61,0,1,1,5,.92A3.61,3.61,0,0,1,1325.29,288.54Z"/><path class="cls-15" d="M1339.05,279.05a3.62,3.62,0,1,1,5,.92A3.62,3.62,0,0,1,1339.05,279.05Z"/><path class="cls-15" d="M1358,270.35a3.61,3.61,0,1,1,.93-5A3.6,3.6,0,0,1,1358,270.35Z"/><path class="cls-15" d="M1366.93,259.8a3.61,3.61,0,1,1,5,.93A3.6,3.6,0,0,1,1366.93,259.8Z"/><path class="cls-15" d="M1380.69,250.31a3.61,3.61,0,1,1,5,.92A3.61,3.61,0,0,1,1380.69,250.31Z"/><path class="cls-15" d="M1399.65,241.61a3.62,3.62,0,1,1,.92-5A3.62,3.62,0,0,1,1399.65,241.61Z"/><path class="cls-15" d="M1408,231.45a3.61,3.61,0,1,1,5,.92A3.61,3.61,0,0,1,1408,231.45Z"/><path class="cls-15" d="M1421.76,222a3.62,3.62,0,1,1,5,.92A3.62,3.62,0,0,1,1421.76,222Z"/><path class="cls-15" d="M1440.72,213.26a3.61,3.61,0,1,1,.92-5A3.61,3.61,0,0,1,1440.72,213.26Z"/><path class="cls-15" d="M1449.64,202.72a3.61,3.61,0,1,1,5,.92A3.61,3.61,0,0,1,1449.64,202.72Z"/><path class="cls-15" d="M1463.39,193.22a3.61,3.61,0,1,1,5,.92A3.6,3.6,0,0,1,1463.39,193.22Z"/><path class="cls-15" d="M1482.36,184.52a3.61,3.61,0,1,1,.92-5A3.62,3.62,0,0,1,1482.36,184.52Z"/><path class="cls-15" d="M1932.67,296.64a3.61,3.61,0,1,1-.11,5.1A3.61,3.61,0,0,1,1932.67,296.64Z"/><path class="cls-15" d="M1944.23,308.71a3.61,3.61,0,1,1-.11,5.1A3.62,3.62,0,0,1,1944.23,308.71Z"/><path class="cls-15" d="M1955.84,326a3.61,3.61,0,1,1,5.11.11A3.6,3.6,0,0,1,1955.84,326Z"/><path class="cls-15" d="M1967.66,333.16a3.61,3.61,0,1,1-.11,5.11A3.62,3.62,0,0,1,1967.66,333.16Z"/><path class="cls-15" d="M1979.23,345.24a3.61,3.61,0,1,1-.11,5.1A3.61,3.61,0,0,1,1979.23,345.24Z"/><path class="cls-15" d="M1990.84,362.57a3.61,3.61,0,1,1,5.1.11A3.61,3.61,0,0,1,1990.84,362.57Z"/><path class="cls-15" d="M2002.69,369.72a3.61,3.61,0,1,1-.11,5.11A3.62,3.62,0,0,1,2002.69,369.72Z"/><path class="cls-15" d="M2014.26,381.79a3.61,3.61,0,1,1-.11,5.11A3.6,3.6,0,0,1,2014.26,381.79Z"/><path class="cls-15" d="M2025.86,399.13a3.61,3.61,0,1,1,5.11.11A3.62,3.62,0,0,1,2025.86,399.13Z"/><path class="cls-15" d="M2037.69,406.25a3.61,3.61,0,1,1-.11,5.11A3.62,3.62,0,0,1,2037.69,406.25Z"/><path class="cls-15" d="M2049.25,418.32a3.61,3.61,0,1,1-.11,5.11A3.62,3.62,0,0,1,2049.25,418.32Z"/><path class="cls-15" d="M2060.86,435.66a3.61,3.61,0,1,1,5.11.11A3.62,3.62,0,0,1,2060.86,435.66Z"/><circle class="cls-15" cx="1544" cy="162.63" r="51.12" transform="translate(1123.02 1657) rotate(-80.28)"/><path class="cls-2" d="M1527.59,142.12A16.41,16.41,0,1,1,1544,158.53,16.41,16.41,0,0,1,1527.59,142.12Z"/><path class="cls-2" d="M1544,158.53a28.71,28.71,0,0,0-28.72,28.71h57.43A28.71,28.71,0,0,0,1544,158.53Z"/><circle class="cls-16" cx="1898.21" cy="252.81" r="78.78" transform="translate(1002.53 1945.4) rotate(-69.7)"/><path class="cls-2" d="M1872.92,221.2a25.29,25.29,0,1,1,25.29,25.29A25.28,25.28,0,0,1,1872.92,221.2Z"/><path class="cls-2" d="M1898.21,246.49A44.25,44.25,0,0,0,1854,290.73h88.49A44.24,44.24,0,0,0,1898.21,246.49Z"/><path class="cls-15" d="M2042.24,468.67a53.18,53.18,0,1,1,53.18,53.19A53.18,53.18,0,0,1,2042.24,468.67Z"/><path class="cls-2" d="M2101.72,481.32a8.08,8.08,0,0,0-.42-2.88,5.92,5.92,0,0,0-1.47-2.27,11.46,11.46,0,0,0-2.67-1.91,31.13,31.13,0,0,0-4-1.73,80.39,80.39,0,0,1-7.41-3.12,25,25,0,0,1-5.67-3.71,14.9,14.9,0,0,1-3.64-4.88,16.56,16.56,0,0,1,0-12.59,13.91,13.91,0,0,1,3.42-4.69,17.28,17.28,0,0,1,5.25-3.21,23.11,23.11,0,0,1,6.82-1.51l.12-8.32,6.7.1-.13,8.43a20.76,20.76,0,0,1,6.5,2,15.68,15.68,0,0,1,8,9.27,21.08,21.08,0,0,1,1,7l-12.09-.18q.07-4.66-2-7a7,7,0,0,0-5.51-2.39,9.08,9.08,0,0,0-3.24.47,6,6,0,0,0-2.26,1.41,5.57,5.57,0,0,0-1.33,2.14,8.22,8.22,0,0,0-.46,2.67,7.7,7.7,0,0,0,.38,2.61,5.75,5.75,0,0,0,1.41,2.18,11.49,11.49,0,0,0,2.7,1.9A37.51,37.51,0,0,0,2096,463q4,1.58,7.34,3.22A25.08,25.08,0,0,1,2109,470a14.87,14.87,0,0,1,3.63,4.89,16.65,16.65,0,0,1-.06,12.67,13.7,13.7,0,0,1-3.44,4.66,16.81,16.81,0,0,1-5.29,3.11,24.9,24.9,0,0,1-6.86,1.45l-.12,7.73-6.65-.09.11-7.7a27.69,27.69,0,0,1-6.69-1.61,17.91,17.91,0,0,1-5.7-3.44,16,16,0,0,1-3.94-5.6,19.5,19.5,0,0,1-1.39-8l12.09.18a12.07,12.07,0,0,0,.71,4.62,7.73,7.73,0,0,0,2,3,7.6,7.6,0,0,0,2.92,1.6,13.2,13.2,0,0,0,3.37.49,10.69,10.69,0,0,0,3.45-.45,7,7,0,0,0,2.51-1.37,5.66,5.66,0,0,0,1.54-2.09A6.83,6.83,0,0,0,2101.72,481.32Z"/></g></g></svg>